<svg viewBox="0 0 4463 1166" xmlns="http://www.w3.org/2000/svg" xmlns:serif="http://www.serif.com/" fill-rule="evenodd" clip-rule="evenodd" stroke-linejoin="round" stroke-miterlimit="1.414"><g transform="matrix(1.00146 0 0 1.00077 -500.722 -740.528)"><path fill="none" d="M499.994 739.999h4456.3v1164.11h-4456.3z"/><clipPath id="a"><path d="M499.994 739.999h4456.3v1164.11h-4456.3z"/></clipPath><g clip-path="url(#a)"><g serif:id="affinity_publisher_icon" transform="matrix(2.30611 0 0 2.30769 -221.818 331.537)"><path d="M746 189.99c0-7.169-5.821-12.99-12.99-12.99H325.99c-7.169 0-12.99 5.821-12.99 12.99v407.02c0 7.169 5.821 12.99 12.99 12.99h407.02c7.169 0 12.99-5.821 12.99-12.99V189.99z" fill="none"/><clipPath id="b"><path d="M746 189.99c0-7.169-5.821-12.99-12.99-12.99H325.99c-7.169 0-12.99 5.821-12.99 12.99v407.02c0 7.169 5.821 12.99 12.99 12.99h407.02c7.169 0 12.99-5.821 12.99-12.99V189.99z"/></clipPath><g clip-path="url(#b)"><path d="M746 189.99c0-7.169-5.821-12.99-12.99-12.99H325.99c-7.169 0-12.99 5.821-12.99 12.99v407.02c0 7.169 5.821 12.99 12.99 12.99h407.02c7.169 0 12.99-5.821 12.99-12.99V189.99z" fill="#c9284d"/><path d="M746 189.99c0-7.169-5.821-12.99-12.99-12.99H490.53L313 484.491V597.01c0 7.169 5.821 12.99 12.99 12.99h407.02c7.169 0 12.99-5.821 12.99-12.99V189.99z" fill="#bd163d"/><path d="M513.198 610H313l.002-118.01 66.032-114.37L513.198 610zm93.095 0h-86.6c-42.333-73.228-83.599-144.498-125.761-217.824-7.031-12.34-7.164-27.908.076-40.51l31.575-54.67L606.293 610zm93.095 0h-86.6L428.83 291.372l43.298-74.998L699.388 610zm6.495 0L475.377 210.749 494.862 177h47.628L746 529.265V610h-40.117zM746 177v341.24L548.985 177H746z" fill="#8d102d"/><path d="M152.5 489.304L447.35 1000H0V753.442l152.5-264.138zM1000 1000h-77.65L390 77.942 435 0h80l485 840.045V1000zm-122.65 0h-170L285 259.808l82.5-142.895L877.35 1000zm-215 0h-170S272.131 618.436 198.353 490.781a80.874 80.874 0 0 1-.012-80.919l61.663-106.763L662.35 1000zM560 0h440v762.102L560 0z" fill="url(#_Radial3)" transform="matrix(.433 0 0 .433 313 177)"/><path d="M897.319 1034.59l-170.096.24L285 259.808l82.5-142.895 529.819 917.677zm-215.156-.27l-170.389-.68-10.441-18.09-28.156-48.778-41.118-71.235-23.935-41.464-25.394-43.99-26.258-45.486-26.529-45.953-26.205-45.389-25.288-43.797-23.776-41.176-11.136-19.283-10.535-18.241-9.861-17.071-9.111-15.773-8.288-14.344-7.39-12.789-.169-.294-.167-.294-.167-.294-.165-.296-.163-.295-.162-.297-.161-.296-.16-.297-.158-.298-.157-.298-.156-.299-.154-.299-.153-.3-.152-.3-.15-.301-.149-.301-.148-.301-.146-.302-.145-.303-.144-.303-.142-.303-.142-.304-.139-.304-.139-.305-.137-.305-.136-.306-.134-.306-.133-.306-.132-.307-.131-.307-.129-.308-.128-.308-.126-.309-.125-.308-.124-.31-.123-.309-.121-.31-.12-.311-.118-.31-.118-.312-.115-.311-.115-.312-.113-.312-.112-.313-.111-.313-.109-.313-.108-.314-.107-.314-.105-.314-.104-.314-.103-.315-.101-.316-.1-.315-.099-.316-.097-.316-.096-.317-.095-.317-.093-.317-.092-.317-.091-.318-.09-.318-.088-.318-.087-.318-.085-.319-.084-.319-.083-.32-.081-.319-.081-.32-.078-.32-.078-.32-.076-.321-.075-.321-.074-.321-.072-.321-.071-.322-.069-.321-.068-.322-.067-.322-.066-.323-.064-.322-.063-.323-.062-.323-.06-.323-.059-.323-.058-.324-.056-.324-.055-.323-.054-.324-.052-.325-.051-.324-.05-.325-.048-.324-.047-.325-.046-.325-.044-.325-.044-.325-.041-.326-.041-.325-.039-.326-.038-.326-.036-.326-.035-.326-.034-.326-.033-.326-.031-.326-.03-.327-.028-.326-.027-.327-.026-.326-.025-.327-.023-.327-.022-.327-.02-.327-.02-.327-.017-.327-.017-.327-.015-.327-.014-.327-.013-.327-.011-.328-.01-.327-.009-.327-.007-.328-.006-.327-.005-.328-.003-.327-.002-.328-.001-.327.001-.327.002-.328.003-.327.004-.328.006-.327.008-.328.008-.327.01-.327.011-.328.013-.327.014-.327.015-.327.016-.327.018-.327.019-.327.021-.327.022-.327.023-.327.024-.327.026-.327.027-.326.028-.327.03-.326.031-.326.033-.327.033-.326.035-.326.037-.325.037-.326.039-.326.041-.325.042-.326.042-.325.045-.325.045-.325.047-.325.049-.325.049-.324.051-.325.052-.324.054-.324.055-.324.056-.323.058-.324.059-.323.06-.323.061-.323.063-.323.064-.323.066-.322.067-.322.068-.322.069-.322.071-.321.072-.322.074-.321.075-.321.076-.32.077-.321.079-.32.08-.319.081-.32.083-.319.084-.319.085-.319.087-.319.088-.318.089-.318.091-.318.092-.317.093-.317.095-.317.096-.317.097-.316.099-.316.1-.315.101-.316.103-.315.104-.314.105-.315.106-.314.108-.313.109-.314.111-.313.112-.312.113-.312.114-.312.116-.312.117-.311.119-.311.12-.31.121-.31.122-.31.124-.309.125-.309.126-.309.128-.308.129-.307.131-.308.131-.307.133-.306.135-.306.135-.306.137-.305.139-.305.139-.304.141-.304.143-.303.143-.303.145-.303.147-.302.147-.301.149-.302.15-.3.152-.3.153-.3.154-.299.156-.299.157-.298.158-.298.159-.297.161-.297.162-.296.164-.296.165-.295.166-.295.167-.294.169-.294 61.663-106.763 422.159 731.221zm-215.449-.78l-502.443-1.19 10.973-236.029L152.5 489.304l314.214 544.236zm555.806-154.493l4.22 153.303-85.321.68L390 77.942 456.639-37.48l36.712-.017 529.169 916.544zM298.836 259.843l435.35 762.977 142.366-.2L367.5 140.913l-68.664 118.93zm-90.098 156.009l-.147.257-.141.248-.145.257-.14.252-.145.262-.135.245-.134.25-.144.266-.126.236-.129.247-.137.264-.137.265-.128.251-.129.255-.133.266-.123.249-.125.256-.123.252-.121.254-.127.267-.119.254-.119.257-.122.266-.116.255-.115.258-.121.273-.113.255-.111.256-.11.256-.108.256-.115.275-.113.272-.107.26-.098.242-.109.274-.11.276-.101.258-.101.262-.099.261-.098.259-.101.275-.102.275-.09.247-.093.263-.098.276-.097.279-.091.264-.083.245-.093.28-.093.28-.086.262-.085.264-.083.265-.082.263-.086.281-.086.282-.075.249-.078.265-.081.28-.08.283-.076.266-.073.265-.073.269-.071.266-.074.282-.07.27-.068.267-.071.282-.066.268-.064.268-.068.285-.063.27-.062.268-.06.267-.058.269-.062.288-.058.269-.055.269-.059.288-.057.286-.052.268-.049.253-.053.289-.05.27-.047.271-.05.288-.046.27-.048.289-.044.27-.042.272-.042.272-.04.27-.042.29-.038.272-.037.271-.038.289-.035.273-.034.273-.035.289-.031.272-.031.273-.029.273-.03.29-.027.272-.026.273-.027.291-.023.274-.023.272-.021.272-.022.292-.02.274-.018.273-.018.29-.016.274-.015.274-.015.291-.013.274-.011.273-.011.274-.009.273-.009.292-.007.274-.006.274-.005.291-.004.274-.002.273-.002.292-.001.274.001.274.002.291.002.274.004.274.005.274.007.273.007.292.009.292.009.273.01.256.013.292.013.291.013.255.017.291.016.292.016.256.019.272.021.292.022.292.021.271.023.273.023.274.026.273.028.291.026.272.029.272.031.291.031.273.031.272.035.289.034.273.035.273.038.288.037.272.038.271.039.272.041.272.044.289.043.27.044.273.048.288.045.27.048.272.051.287.049.269.051.271.055.289.052.267.054.271.054.27.057.269.061.288.057.267.06.269.064.285.061.268.064.27.067.286.064.265.067.268.071.286.068.268.069.265.07.267.072.267.078.283.078.283.074.266.072.25.081.28.083.282.074.249.172.563.077.247.085.264.09.281.091.278.087.264.088.264.089.261.091.264.097.279.092.26.093.26.101.278.096.263.097.259.105.277.098.259.1.258.108.277.103.261.103.258.104.257.108.26.113.272.107.257.111.259.116.271.111.256.114.259.12.27.114.255.116.254.116.254.125.269.12.256.121.254.128.267.123.253.123.252.127.256.133.266.125.248.128.251.139.268.13.251.13.247.14.263.135.253.134.246.136.248.138.249.146.261.14.248.302.529 7.376 12.764 8.289 14.346 9.112 15.773 9.86 17.072 10.536 18.241 11.136 19.283 23.776 41.176 25.289 43.798 26.205 45.39 26.528 45.952 26.259 45.486 25.394 43.991 23.934 41.464 41.119 71.235 28.156 48.777 6.993 12.12 142.612.57-401.329-695.144-51.264 88.756zM-12.904 799.793l-10.255 220.587 469.06 1.11L152.5 513.304-12.904 799.793zM463.569-25.483L403.856 77.942l544.459 943.028 66.095-.53-3.8-138.025L486.425-25.493l-22.856.01zm565.681 838.247L538.405-37.404l483.945-1.308 6.9 851.476zM559.158-25.46l457.722 792.802-6.43-794.022-451.292 1.22z" fill="url(#_Linear4)" transform="matrix(.433 0 0 .433 313 177)"/></g></g><g fill="#2f2f2f" fill-rule="nonzero"><path d="M1943.29 1215.078h-165.158v524.155h102.241v-174.706h62.917c154.153 0 233.586-53.531 233.586-175.51 0-121.98-79.433-173.94-233.586-173.94zm-3.142 268.385h-59.775v-187.321h59.775c86.51 0 132.912 20.476 132.912 92.874s-46.401 94.447-132.912 94.447zM2360.126 1750.239c66.849 0 103.812-34.627 120.328-81.064h2.36l1.575 70.058h91.243v-391.937h-98.324v205.42c0 81.064-31.457 116.459-81.79 116.459-44.045 0-65.278-26.729-65.278-81.832v-240.047h-98.31v258.95c0 94.411 47.188 143.993 128.196 143.993zM2879.202 1750.239c91.24 0 169.872-72.398 169.872-212.478 0-145.6-85.721-202.276-167.497-202.276-62.92 0-101.47 33.86-119.557 74.775h-2.375v-219.57h-98.291v548.543h92.006l1.571-70.826h1.571c16.516 40.916 55.065 81.832 122.7 81.832zm-25.176-75.543c-58.207 0-95.952-49.582-95.952-133.79 0-85.781 40.12-129.878 93.614-129.878 51.886 0 96.72 41.72 96.72 132.255 0 84.208-38.55 131.413-94.382 131.413zM3114.37 1190.69h98.31v548.55h-98.31zM3348.735 1287.476c33.799 0 58.17-25.961 58.17-58.248 0-32.25-24.371-57.443-58.17-57.443-34.603 0-59.012 25.193-59.012 57.443 0 32.287 24.409 58.248 59.012 58.248zm-48.78 451.757h98.327v-391.937h-98.328v391.937zM3623.22 1750.239c104.575 0 166.73-49.582 166.73-127.465 0-85.013-72.386-102.344-153.357-120.444-50.352-11.006-77.098-19.672-77.098-51.922 0-27.57 18.087-48.01 59.778-48.01 35.407 0 64.492 15.724 74.723 59.82l87.293-22.852c-14.14-65.305-67.634-103.88-160.445-103.88-107.755 0-158.07 52.726-158.07 121.211 0 78.688 62.118 101.504 143.126 119.64 58.207 12.578 86.525 19.672 86.525 53.494 0 32.287-27.55 51.959-69.206 51.959-44.834 0-71.58-21.244-81.008-63.77l-88.096 22.05c8.66 60.587 63.688 110.169 169.104 110.169zM3844.978 1739.233h98.327v-214.854c0-75.543 35.407-108.598 85.722-108.598 43.263 0 65.296 25.961 65.296 81.832v241.62h98.291V1484.23c0-101.504-54.26-148.746-132.126-148.746-55.065 0-93.578 25.998-114.808 71.63h-2.375V1190.69h-98.327v548.544zM4635.4 1543.283c0-139.312-72.348-207.798-186.388-207.798-116.415 0-194.28 89.73-194.28 208.565 0 117.263 67.634 206.189 195.047 206.189 95.186 0 153.393-47.205 171.48-103.88l-82.579-33.823c-14.177 40.112-40.12 66.877-88.097 66.877-64.492 0-93.614-55.871-97.524-113.314H4635.4v-22.816zm-186.388-137.74c57.404 0 85.722 41.72 89.668 100.736h-184.853c8.66-59.82 42.495-100.736 95.185-100.736zM4696.75 1739.233h98.291v-168.417c0-104.685 48.78-149.55 103.845-149.55 19.659 0 34.603 4.754 44.03 9.47l13.374-87.39c-6.285-3.144-19.658-7.86-44.834-7.86-41.692 0-95.953 20.476-120.325 101.54h-1.57l-1.572-89.73h-91.24v391.937z"/></g><path d="M2222.004 764.25h-123.5v102.715h70.662v23.97h-70.662v128.85h-25.738V740h149.238v24.25zm643.649 255.534h-26.023V740h26.023v279.784zm-362.933 0h-26.055V740h26.055v279.784zm-78.767-255.533h-123.5v102.714h70.662v23.97h-70.661v128.85h-25.739V740h149.238v24.25zm669.198 0h-74.24v255.533h-26.054V764.251h-74.651V740h174.945v24.25zm-511.918 255.533h-25.738V740h27.7l177.478 235.926V740h26.055v279.784h-25.39l-180.105-240.089v240.09zm679.486 0h-26.34v-68.426L3113.792 740h29.696l104.061 181.357L3351.611 740h29.696l-120.588 211.358v68.426zm-1210.969 0h-27.733l-108.272-244.182c-6.775 15.618-72.688 165.602-79.716 181.49 13.803 0 131.953 1.175 138.728 1.21l10.763 23.536c-23.553-.146-129.166-.488-160.445-.488-2.85 6.019-14.848 32.687-17.19 38.434h-27.733L1902.032 740h23.838l123.88 279.784z" fill="#2f2f2f" serif:id="Affinity Logo"/></g></g><defs><radialGradient id="_Radial3" cx="0" cy="0" r="1" gradientUnits="userSpaceOnUse" gradientTransform="translate(764.244 -187.941) scale(1187.94)"><stop offset="0" stop-color="#ffae71"/><stop offset="1" stop-color="#ff9350"/></radialGradient><linearGradient id="_Linear4" x2="1" gradientUnits="userSpaceOnUse" gradientTransform="matrix(0 1000 -1000 0 1892.5 0)"><stop offset="0" stop-color="#ffbc8f"/><stop offset="1" stop-color="#ffa16b"/></linearGradient></defs></svg>