<?xml version="1.0" encoding="UTF-8" standalone="no"?>
<!DOCTYPE svg PUBLIC "-//W3C//DTD SVG 1.1//EN" "http://www.w3.org/Graphics/SVG/1.1/DTD/svg11.dtd">
<svg width="100%" height="100%" viewBox="0 0 528 135" version="1.1" xmlns="http://www.w3.org/2000/svg" xmlns:xlink="http://www.w3.org/1999/xlink" xml:space="preserve" xmlns:serif="http://www.serif.com/" style="fill-rule:evenodd;clip-rule:evenodd;stroke-linejoin:round;stroke-miterlimit:2;">
    <g id="アートボード1" transform="matrix(1.03337,0,0,0.664875,-13.326,10.1928)">
        <rect x="12.896" y="-15.33" width="509.984" height="202.015" style="fill:none;"/>
        <g transform="matrix(0.967709,0,0,1.50404,-6.91089,-24.7828)">
            <g transform="matrix(9.52834,0,0,9.72279,-2920.72,-8243.9)">
                <g>
                    <path d="M331.917,859.703L329.433,852.549L329.386,852.549C329.452,853.611 329.485,854.607 329.485,855.537L329.485,859.703L328.214,859.703L328.214,851.136L330.189,851.136L332.567,857.951L332.603,857.951L335.052,851.136L337.032,851.136L337.032,859.703L335.685,859.703L335.685,855.467C335.685,855.041 335.695,854.486 335.717,853.802C335.738,853.119 335.757,852.705 335.773,852.56L335.726,852.56L333.153,859.703L331.917,859.703Z" style="fill:rgb(37,124,175);fill-rule:nonzero;"/>
                    <path d="M344.603,859.703L343.747,857.324L340.472,857.324L339.634,859.703L338.157,859.703L341.362,851.101L342.886,851.101L346.091,859.703L344.603,859.703ZM343.378,856.117L342.575,853.785C342.517,853.629 342.436,853.383 342.332,853.047C342.229,852.711 342.157,852.465 342.118,852.308C342.013,852.789 341.859,853.314 341.655,853.885L340.882,856.117L343.378,856.117Z" style="fill:rgb(37,124,175);fill-rule:nonzero;"/>
                    <path d="M350.925,859.703L348.441,852.549L348.394,852.549C348.46,853.611 348.493,854.607 348.493,855.537L348.493,859.703L347.222,859.703L347.222,851.136L349.196,851.136L351.575,857.951L351.61,857.951L354.06,851.136L356.04,851.136L356.04,859.703L354.692,859.703L354.692,855.467C354.692,855.041 354.703,854.486 354.725,853.802C354.746,853.119 354.765,852.705 354.78,852.56L354.734,852.56L352.161,859.703L350.925,859.703Z" style="fill:rgb(37,124,175);fill-rule:nonzero;"/>
                    <path d="M363.968,853.726C363.968,854.621 363.675,855.306 363.089,855.783C362.503,856.26 361.669,856.498 360.587,856.498L359.696,856.498L359.696,859.703L358.296,859.703L358.296,851.136L360.763,851.136C361.833,851.136 362.635,851.355 363.168,851.793C363.701,852.23 363.968,852.875 363.968,853.726ZM359.696,855.32L360.441,855.32C361.159,855.32 361.687,855.195 362.023,854.945C362.359,854.695 362.526,854.304 362.526,853.773C362.526,853.281 362.376,852.914 362.075,852.672C361.775,852.429 361.306,852.308 360.669,852.308L359.696,852.308L359.696,855.32Z" style="fill:rgb(37,124,175);fill-rule:nonzero;"/>
                </g>
            </g>
            <path d="M21.299,58.31C22.868,47.49 34.947,13.771 68.868,7.378C88.888,3.601 113.573,13.978 130.904,31.555C122.263,37.487 116.486,42.611 112.122,48.838C115.375,60.917 124.991,65.835 131.761,67.881C124.26,63.346 119.525,59.067 116.593,49.939C132.638,30.867 149.813,24.699 151.264,24.552C164.679,35.254 174.148,54.769 173.807,75.317C173.407,99.111 160.47,123.633 145.633,133.528C143.597,134.502 138.912,131.934 138.269,129.151C141.308,122.098 148.488,104.924 149.374,92.098C150.212,79.783 142.058,72.553 135.219,81.455C125.711,97.37 121.561,117.141 117.411,138.476C110.427,140.472 98.571,140.974 93.447,138.24C92.794,125.039 95.872,102.495 87.115,94.586C83.364,91.193 79.662,92.766 77.149,95.894C70.817,103.734 70.943,124.065 72.171,137.246C65.088,141.623 53.087,140.708 45.498,137.994C42.458,117.278 35.308,92.029 29.463,72.7C27.836,80.471 27.047,89.707 27.3,97.645C23.394,94.468 18.951,77.756 21.299,58.31Z" style="fill:rgb(37,124,175);"/>
        </g>
    </g>
</svg>
