<svg viewBox="0 0 4293 1166" xmlns="http://www.w3.org/2000/svg" xmlns:serif="http://www.serif.com/" fill-rule="evenodd" clip-rule="evenodd" stroke-linejoin="round" stroke-miterlimit="1.414"><g transform="matrix(.96328 0 0 1.00077 -481.634 -740.518)"><path fill="none" d="M499.994 739.999h4456.3v1164.11h-4456.3z"/><clipPath id="a"><path d="M499.994 739.999h4456.3v1164.11h-4456.3z"/></clipPath><g clip-path="url(#a)"><g transform="matrix(2.3975 0 0 2.30769 -250.418 331.537)"><path d="M746 189.99c0-7.169-5.821-12.99-12.99-12.99H325.99c-7.169 0-12.99 5.821-12.99 12.99v407.02c0 7.169 5.821 12.99 12.99 12.99h407.02c7.169 0 12.99-5.821 12.99-12.99V189.99z" fill="#144e8c"/><clipPath id="b"><path d="M746 189.99c0-7.169-5.821-12.99-12.99-12.99H325.99c-7.169 0-12.99 5.821-12.99 12.99v407.02c0 7.169 5.821 12.99 12.99 12.99h407.02c7.169 0 12.99-5.821 12.99-12.99V189.99z"/></clipPath><g clip-path="url(#b)"><path serif:id="affinity_designer_icon" d="M746 189.99c0-7.169-5.821-12.99-12.99-12.99H325.99c-7.169 0-12.99 5.821-12.99 12.99v407.02c0 7.169 5.821 12.99 12.99 12.99h407.02c7.169 0 12.99-5.821 12.99-12.99V189.99z" fill="#1b72be"/><path serif:id="affinity_designer_icon" d="M746 189.99c0-7.169-5.821-12.99-12.99-12.99H490.53L313 484.491V597.01c0 7.169 5.821 12.99 12.99 12.99h407.02c7.169 0 12.99-5.821 12.99-12.99V189.99z" fill="#0568aa"/><path d="M513.198 610H483l-78-156.814L557 177h24.46L422.333 452.617 513.197 610zM595 610h-75.307l-88.737-153.697H746.03L746 485 595 610zm-74.85-433h-25.29L313 491.99v43.805L520.15 177zm43.93 273.638h-85.646c-9.997 0-19.293-5.23-24.292-13.886a27.982 27.982 0 0 1 0-27.981l42.883-74.275 67.055 116.142zm181.92 0H570.575L500.272 328.87 587.955 177l31.77.02L573.58 334 595 378l151 59.38v13.258z" fill="#074f7f"/><path d="M1102 2813H582.167l-202.169-350.17H1102V2813zm-565.913 0H78v-252.47L523.44 1789h174.08L321.2 2440.81 536.087 2813zm112.694-390.1H472.775c-19.648 0-37.803-10.31-47.627-27.33a54.985 54.985 0 0 1 0-54.99c39.097-67.72 88.052-152.51 88.052-152.51l135.581 234.83zm453.219 0H694.881L536.24 2148.16 743.6 1789H1102v633.9z" fill="url(#_Radial3)" transform="translate(280.018 -579.481) scale(.42285)"/><path d="M1125.76 2831.83H593.04l-213.042-369h745.392l.37 369zM321.2 2440.81l225.76 391.02H46.573l-1.676-213.97 490.91-850.28h174.08L321.2 2440.81zm80.082 34.31l198.853 344.43h513.325l-.34-344.43H401.282zm141.619-695.25l-485.69 841.24 1.554 198.44h466.912l-218.666-378.74 381.592-660.94H542.901zm105.88 643.03H472.315l-.23-.01h-.459l-.23-.01h-.229l-.229-.01-.229-.01-.229-.01-.229-.01-.228-.01-.229-.01-.228-.01-.228-.02-.228-.01-.227-.02-.228-.01-.227-.02-.227-.02-.227-.02-.227-.02-.226-.02-.227-.02-.226-.02-.226-.03-.226-.02-.225-.03-.226-.02-.225-.03-.225-.03-.224-.03-.225-.03-.224-.03-.224-.03-.224-.03-.224-.04-.223-.03-.223-.04-.223-.03-.223-.04-.223-.04-.222-.04-.222-.04-.221-.04-.222-.04-.221-.04-.221-.05-.221-.04-.22-.05-.221-.04-.22-.05-.219-.05-.22-.05-.219-.04-.219-.06-.219-.05-.218-.05-.218-.05-.218-.06-.217-.05-.217-.05-.217-.06-.217-.06-.216-.06-.216-.06-.216-.06-.216-.06-.215-.06-.215-.06-.214-.06-.214-.07-.214-.06-.214-.07-.213-.07-.213-.06-.213-.07-.212-.07-.212-.07-.212-.07-.211-.08-.211-.07-.211-.07-.21-.07-.21-.08-.21-.08-.209-.07-.209-.08-.208-.08-.209-.08-.208-.08-.207-.08-.207-.08-.207-.08-.206-.09-.206-.08-.206-.09-.205-.08-.205-.09-.205-.09-.204-.09-.204-.08-.203-.1-.203-.09-.203-.09-.202-.09-.202-.09-.201-.1-.201-.09-.201-.1-.2-.09-.2-.1-.199-.1-.199-.1-.199-.1-.198-.1-.198-.1-.197-.1-.197-.1-.197-.11-.196-.1-.195-.11-.195-.1-.195-.11-.194-.11-.194-.11-.194-.11-.193-.1-.192-.11-.192-.12-.192-.11-.191-.11-.19-.12-.191-.11-.189-.11-.19-.12-.189-.12-.188-.12-.188-.11-.187-.12-.187-.12-.186-.12-.186-.12-.186-.13-.185-.12-.184-.12-.184-.13-.184-.12-.183-.13-.182-.13-.182-.12-.182-.13-.181-.13-.18-.13-.18-.13-.18-.13-.178-.13-.179-.14-.178-.13-.177-.13-.177-.14-.176-.13-.176-.14-.175-.14-.175-.14-.174-.13-.174-.14-.173-.14-.172-.15-.172-.14-.172-.14-.17-.14-.171-.15-.169-.14-.17-.14-.168-.15-.168-.15-.168-.14-.167-.15-.166-.15-.166-.15-.165-.15-.164-.15-.164-.15-.164-.15-.163-.16-.162-.15-.161-.16-.162-.15-.16-.16-.16-.15-.159-.16-.159-.16-.158-.16-.157-.16-.157-.16-.156-.16-.156-.16-.155-.16-.154-.16-.154-.17-.153-.16-.152-.16-.152-.17-.151-.17-.151-.16-.149-.17-.15-.17-.148-.17-.148-.17-.148-.17-.146-.17-.146-.17-.146-.17-.144-.17-.144-.18-.144-.17-.142-.18-.142-.17-.142-.18-.14-.18-.14-.17-.14-.18-.138-.18-.138-.18-.137-.18-.137-.18-.136-.18-.135-.18-.134-.18-.134-.19-.133-.18-.133-.19-.131-.18-.131-.19-.131-.19-.129-.18-.129-.19-.128-.19-.127-.19-.127-.19-.126-.19-.125-.19-.125-.19-.123-.19-.123-.2-.123-.19-.121-.19-.121-.2-.12-.19-.119-.2-.119-.2-.118-.19-.117-.2-.116-.2-.115-.2-.115-.2-.114-.2-.113-.2-.112-.2-.111-.2-.11-.2-.109-.2-.109-.2-.107-.21-.107-.2-.105-.2-.105-.21-.104-.2-.103-.2-.102-.21-.101-.2-.101-.21-.099-.2-.098-.21-.098-.21-.097-.2-.095-.21-.095-.21-.094-.2-.093-.21-.093-.21-.091-.2-.09-.21-.09-.21-.088-.21-.088-.21-.087-.21-.086-.21-.085-.21-.084-.21-.083-.21-.082-.21-.082-.21-.08-.21-.08-.21-.079-.22-.077-.21-.077-.21-.076-.21-.075-.21-.075-.22-.073-.21-.072-.21-.072-.22-.07-.21-.07-.22-.069-.21-.068-.21-.067-.22-.066-.21-.065-.22-.064-.22-.064-.21-.062-.22-.062-.21-.061-.22-.059-.21-.059-.22-.058-.22-.057-.21-.057-.22-.055-.22-.054-.22-.054-.21-.053-.22-.051-.22-.051-.22-.05-.21-.049-.22-.048-.22-.047-.22-.047-.22-.045-.22-.045-.22-.043-.22-.043-.22-.042-.22-.041-.21-.04-.22-.039-.22-.038-.22-.037-.23-.037-.21-.035-.23-.035-.22-.034-.22-.033-.22-.031-.22-.032-.22-.03-.22-.029-.22-.028-.22-.028-.22-.026-.22-.026-.23-.025-.22-.023-.22-.023-.22-.022-.22-.021-.22-.021-.23-.019-.22-.018-.22-.018-.22-.017-.22-.015-.23-.015-.22-.014-.22-.013-.22-.012-.22-.012-.23-.01-.22-.009-.22-.009-.22-.008-.23-.006-.22-.006-.22-.005-.22-.004-.23-.003-.22-.003-.22-.001-.22v-.45l.001-.22.003-.22.003-.23.004-.22.005-.22.006-.22.006-.23.008-.22.009-.22.009-.22.01-.23.012-.22.012-.22.013-.22.014-.23.015-.22.015-.22.017-.22.018-.22.018-.22.019-.23.021-.22.021-.22.022-.22.023-.22.023-.23.025-.22.026-.22.026-.22.028-.22.028-.22.029-.22.03-.22.032-.23.031-.22.033-.22.034-.22.035-.22.035-.22.037-.22.037-.22.038-.22.039-.22.04-.22.041-.22.042-.22.043-.22.043-.22.045-.21.045-.22.047-.22.047-.22.048-.22.049-.22.05-.22.051-.21.051-.22.053-.22.054-.22.054-.21.055-.22.057-.22.057-.22.058-.21.059-.22.059-.22.061-.21.062-.22.062-.21.064-.22.064-.21.065-.22.066-.21.067-.22.068-.21.069-.22.07-.21.07-.22.072-.21.072-.21.073-.21.075-.22.075-.21.076-.21.077-.21.077-.22.079-.21.08-.21.08-.21.082-.21.082-.21.083-.21.084-.21.085-.21.086-.21.087-.21.088-.21.088-.21.09-.21.09-.21.091-.21.093-.2.093-.21.094-.21.095-.2.095-.21.097-.21.098-.2.098-.21.099-.21.101-.2.101-.2.102-.21.103-.2.104-.21.105-.2.105-.2.107-.2.107-.21.109-.2.109-.2.11-.2.111-.2.112-.2.113-.21.114-.19.115-.2 88.052-152.51 135.581 234.83zm476.359 0H694.861L536.24 2148.16l219.727-380.58h364.723l4.45 655.32zm-689.336-76.21l-.098.18-.098.17-.085.15-.086.15-.082.15-.096.18-.083.15-.07.13-.093.17-.092.18-.079.15-.07.14-.078.15-.087.17-.088.18-.078.16-.063.13-.086.17-.076.16-.072.16-.084.17-.073.16-.072.16-.071.15-.069.16-.07.16-.079.18-.069.15-.066.16-.067.16-.066.15-.076.19-.065.15-.063.16-.064.16-.072.18-.062.16-.061.16-.061.16-.06.16-.068.18-.059.16-.058.16-.058.16-.056.16-.055.16-.064.19-.055.16-.053.16-.054.16-.052.16-.06.19-.051.16-.05.16-.058.19-.049.16-.041.13-.055.2-.047.16-.046.16-.053.19-.045.16-.045.16-.043.17-.043.16-.042.16-.048.19-.042.16-.04.17-.046.19-.039.16-.032.14-.037.16-.048.22-.038.17-.029.13-.04.19-.035.17-.033.16-.033.17-.032.16-.036.19-.031.17-.03.16-.034.2-.03.16-.023.14-.032.19-.027.17-.025.16-.03.2-.025.16-.024.17-.023.17-.023.16-.025.2-.022.16-.02.17-.02.17-.019.16-.022.2-.018.16-.017.17-.017.17-.016.16-.015.17-.016.19-.015.17-.012.17-.015.19-.012.17-.012.17-.01.16-.01.17-.009.17-.008.16-.009.2-.007.17-.007.16-.007.2-.005.17-.004.16-.004.17-.003.17-.002.16-.002.17-.001.2v.16l.001.37.002.16.002.17.003.17.004.17.004.16.005.17.013.36.017.36.008.17.009.17.01.16.01.17.012.17.012.17.015.19.012.17.015.16.016.2.015.16.016.17.017.17.017.17.018.16.022.19.019.17.04.33.022.17.025.19.023.17.023.17.024.16.025.17.055.36.059.36.023.14.03.16.034.19.03.17.031.16.036.19.032.17.033.16.033.17.035.16.04.19.03.14.036.17.086.38.032.13.039.17.046.19.04.16.042.17.048.19.042.16.043.16.043.17.045.16.045.16.099.35.047.16.055.19.041.14.049.16.058.19.05.16.051.16.06.18.053.17.053.16.053.16.055.16.063.18.057.17.056.16.057.15.057.16.06.17.068.18.06.16.061.16.061.16.063.16.071.18.063.15.065.17.064.15.142.34.066.16.067.15.069.16.079.18.07.16.069.16.072.15.072.16.072.15.083.18.073.16.076.15.084.18.066.13.077.16.087.17.089.18.077.15.068.13.081.16.093.17.092.18.07.13.083.15.094.17.085.16.085.15.085.15.098.17.084.15.086.15.098.16.085.15.095.16.086.14.089.14.11.18.085.14.089.14.102.16.089.15.102.15.089.14.089.14.116.17.091.14.092.13.12.18.09.13.092.13.108.16.094.13.108.16.108.15.093.13.097.13.11.15.108.14.11.15.113.15.096.13.097.12.116.15.113.15.098.12.111.14.115.14.104.13.114.14.113.14.103.12.118.14.117.14.102.12.119.14.116.13.106.13.121.13.117.13.108.12.119.14.122.13.122.13.12.13.106.12.124.13.125.13.108.11.122.13.139.14.112.12.11.11.124.12.128.13.125.12.125.12.128.13.116.11.127.12.126.12.131.13.127.11.115.11.129.12.132.12.133.12.126.11.13.12.134.11.121.11.132.11.131.12.133.11.132.11.137.12.133.11.12.09.135.11.134.11.136.11.153.12.121.1.133.1.14.11.274.21.125.1.156.11.134.1.138.1.144.11.126.09.141.1.153.11.136.1.128.09.147.1.155.1.142.1.13.09.138.09.157.11.148.1.127.08.157.1.149.1.129.08.153.09.151.1.146.09.142.09.147.08.147.09.149.09.16.1.136.08.15.08.155.09.145.08.155.09.139.08.158.09.162.09.134.07.152.08.164.09.152.08.142.07.16.09.147.07.32.16.138.07.167.08.154.08.151.07.166.08.146.07.162.07.151.07.158.08.168.07.142.06.169.08.153.07.154.06.169.08.16.06.154.07.155.06.161.07.171.07.155.06.157.06.165.07.163.06.156.06.158.06.173.06.157.06.165.06.167.06.167.06.165.06.151.05.169.05.173.06.153.05.169.06.169.05.153.05.17.05.176.06.162.05.162.05.17.05.164.04.171.05.169.05.165.05.164.04.179.05.171.05.159.04.165.04.173.04.173.05.166.04.167.04.174.04.174.04.173.04.168.03.162.04.181.04.168.03.169.04.181.03.164.04.17.03.175.03.171.03.175.03.178.03.17.03.169.03.179.03.173.03.17.02.177.03.174.03.173.02.179.03.17.02.175.02.179.02.178.02.175.03.169.02.173.01.179.02.186.02.17.02.171.01.189.02.17.01.173.02.188.01.172.01.172.02.182.01.181.01.181.01.173.01.174.01h.183l.181.01.174.01h.176l.183.01h.358l.176.01h155.266L513.2 2212.64l-77.396 134.05zm327.257-566.82l-212.632 368.29 151.527 262.45h410.814l-4.28-630.74H763.061z" fill="url(#_Linear4)" transform="translate(280.018 -579.481) scale(.42285)"/></g></g><g fill="#2f2f2f" fill-rule="nonzero"><path d="M2010.304 1215.078h-181.516v524.155h175.795c179.063 0 283.722-85.013 283.722-262.864 0-178.655-107.11-261.291-278-261.291zm-17.17 443.09h-58.053v-362.026h64.594c113.656 0 179.066 48.01 179.066 181.8 0 133.022-65.41 180.227-185.607 180.227zM2734.743 1543.283c0-139.312-75.215-207.798-193.786-207.798-121.01 0-201.957 89.73-201.957 208.565 0 117.263 70.319 206.189 202.774 206.189 98.95 0 159.426-47.205 178.268-103.88l-85.89-33.823c-14.701 40.112-41.672 66.877-91.558 66.877-67.048 0-97.301-55.871-101.389-113.314h293.538v-22.816zm-193.786-137.74c59.69 0 89.13 41.72 93.195 100.736h-192.13c8.996-59.82 44.153-100.736 98.935-100.736zM2948.955 1750.239c108.759 0 173.338-49.582 173.338-127.465 0-85.013-75.216-102.344-159.434-120.444-52.31-11.006-80.116-19.672-80.116-51.922 0-27.57 18.804-48.01 62.148-48.01 36.772 0 67.048 15.724 77.646 59.82l90.79-22.852c-14.739-65.305-70.314-103.88-166.803-103.88-112.025 0-164.372 52.726-164.372 121.211 0 78.688 64.617 101.504 148.835 119.64 60.476 12.578 89.917 19.672 89.917 53.494 0 32.287-28.605 51.959-71.949 51.959-46.61 0-74.417-21.244-84.218-63.77l-91.55 22.05c8.965 60.587 66.212 110.169 175.768 110.169zM3231.051 1287.476c35.177 0 60.514-25.961 60.514-58.248 0-32.25-25.337-57.443-60.514-57.443-35.974 0-61.312 25.193-61.312 57.443 0 32.287 25.338 58.248 61.312 58.248zm-50.713 451.757h102.224v-391.937h-102.224v391.937zM3685.649 1678.645c-24.502-11.81-58.843-18.1-103.023-18.1h-46.61c-51.512 0-70.315-3.144-70.315-20.476 0-16.527 22.906-18.867 53.144-21.244 53.98-3.949 98.122-11.042 131.665-32.286 32.708-21.245 59.679-56.64 59.679-110.938 0-50.386-22.907-88.157-60.515-111.778 12.27-13.383 29.44-17.295 44.978-17.295 18.006 0 35.974 5.485 45.775 12.578l10.636-77.115c-6.533-3.144-22.07-9.47-45.775-9.47-41.71 0-76.849 20.476-91.588 74.775-22.868-7.862-48.244-11.81-76.013-11.81-110.392 0-174.173 62.964-174.173 144.028 0 57.443 32.707 102.308 80.951 119.64-40.912 2.34-69.517 22.048-69.517 52.726 0 29.105 22.071 44.865 45.775 51.154v2.34c-34.34 3.949-80.913 25.997-80.913 81.868 0 65.305 66.212 115.69 198.675 115.69 134.894 0 202.778-51.921 202.778-132.217 0-44.865-18.007-74.775-55.614-92.07zm-148.798-277.819c49.878 0 76.052 34.627 76.052 76.348 0 41.683-24.54 77.115-76.052 77.115-49.877 0-76.849-35.432-76.849-77.115 0-41.72 26.972-76.348 76.85-76.348zm3.267 435.23c-76.05 0-104.656-27.57-104.656-59.82 0-33.054 32.708-47.241 57.248-51.154h49.042c58.88 0 102.224 5.485 102.224 50.35 0 35.431-30.276 60.624-103.858 60.624zM3800.941 1739.233h102.225v-214.854c0-75.543 36.772-108.598 89.119-108.598 44.977 0 67.846 25.961 67.846 81.832v241.62h102.224V1484.23c0-101.504-56.411-148.746-137.363-148.746-57.247 0-102.225 24.389-125.093 81.869h-1.634l-2.469-70.058h-94.855v391.937zM4622.689 1543.283c0-139.312-75.216-207.798-193.775-207.798-121.028 0-201.98 89.73-201.98 208.565 0 117.263 70.315 206.189 202.778 206.189 98.958 0 159.434-47.205 178.238-103.88l-85.852-33.823c-14.701 40.112-41.673 66.877-91.55 66.877-67.049 0-97.325-55.871-101.39-113.314h293.53v-22.816zm-193.775-137.74c59.679 0 89.119 41.72 93.184 100.736h-192.142c9.003-59.82 44.142-100.736 98.958-100.736zM4686.47 1739.233h102.187v-168.417c0-104.685 50.713-149.55 107.922-149.55 20.476 0 35.975 4.754 45.814 9.47l13.903-87.39c-6.572-3.144-20.437-7.86-46.61-7.86-43.345 0-99.756 20.476-125.094 101.54h-1.633l-1.634-89.73h-94.855v391.937z"/></g><path d="M2290.258 764.25h-128.394v102.715h73.462v23.97h-73.462v128.85h-26.759V740h155.153v24.25zm669.158 255.534h-27.054V740h27.054v279.784zm-377.317 0h-27.087V740h27.087v279.784zm-81.888-255.533h-128.394v102.714h73.462v23.97h-73.462v128.85h-26.758V740h155.152v24.25zm695.72 0h-77.182v255.533h-27.087V764.251h-77.61V740h181.879v24.25zm-532.207 255.533h-26.758V740h28.799l184.511 235.926V740h27.088v279.784h-26.397l-187.243-240.089v240.09zm706.416 0h-27.384v-68.426L3217.39 740h30.873l108.185 181.357L3464.634 740h30.873L3370.14 951.358v68.426zm-1258.963 0h-28.832l-112.563-244.182c-7.043 15.618-75.568 165.602-82.875 181.49 14.35 0 137.182 1.175 144.226 1.21l11.19 23.536c-24.487-.146-134.286-.488-166.804-.488-2.962 6.019-15.436 32.687-17.872 38.434h-28.832L1957.605 740h24.783l128.79 279.784z" fill="#2f2f2f" serif:id="Affinity Logo"/></g></g><defs><radialGradient id="_Radial3" cx="0" cy="0" r="1" gradientUnits="userSpaceOnUse" gradientTransform="translate(860.679 1596.55) scale(1216.45)"><stop offset="0" stop-color="#6be1fb"/><stop offset="1" stop-color="#38bdfa"/></radialGradient><linearGradient id="_Linear4" x2="1" gradientUnits="userSpaceOnUse" gradientTransform="rotate(-90.001 1849.3 963.717) scale(1024)"><stop offset="0" stop-color="#4ac5fa"/><stop offset="1" stop-color="#97e8fc"/></linearGradient></defs></svg>