<?xml version="1.0" encoding="UTF-8" standalone="no"?>
<!DOCTYPE svg PUBLIC "-//W3C//DTD SVG 1.1//EN" "http://www.w3.org/Graphics/SVG/1.1/DTD/svg11.dtd">
<svg width="100%" height="100%" viewBox="0 0 671 143" version="1.1" xmlns="http://www.w3.org/2000/svg" xmlns:xlink="http://www.w3.org/1999/xlink" xml:space="preserve" xmlns:serif="http://www.serif.com/" style="fill-rule:evenodd;clip-rule:evenodd;stroke-linejoin:round;stroke-miterlimit:2;">
    <path d="M70.57,0.001C88.899,0.001 107.229,0.001 125.558,0C127.858,0 130.137,0.2 132.344,0.874C137.129,2.335 139.663,5.772 140.656,10.509C141.05,12.387 141.162,14.302 141.166,16.216C141.195,29.074 141.217,41.932 141.218,54.79C141.219,78.208 141.222,101.626 141.174,125.044C141.167,128.322 140.993,131.636 139.377,134.622C137.585,137.934 135.131,140.555 131.406,141.708C130.733,141.916 130.03,142.153 129.34,142.153C127.75,142.154 126.203,142.549 124.618,142.549C88.725,142.546 52.832,142.567 16.939,142.51C14.02,142.505 11.053,142.292 8.28,141.102C7.728,140.865 7.171,140.666 6.686,140.296C3.155,137.601 0.758,134.24 0.244,129.692C0.059,128.052 0,126.421 0,124.781C0.006,88.341 0.009,51.901 0.028,15.461C0.029,13.347 0.051,11.197 0.7,9.174C2.429,3.782 6.212,0.839 11.82,0.241C13.123,0.102 14.438,0.012 15.747,0.011C34.021,-0.004 52.296,0.001 70.57,0.001ZM71.151,90.676C71.532,92.832 71.837,94.72 72.482,96.528C76.443,107.638 88.213,116.821 103.568,113.121C114.566,110.471 122.56,100.335 122.907,89.031C123.073,83.614 121.779,78.627 118.847,74.082C118.341,73.297 118.3,72.688 118.695,71.844C120.49,68.013 121.719,63.994 122.381,59.813C123.044,55.628 123.184,51.441 122.38,47.25C120.478,37.333 110.395,26.656 96.782,26.782C83.35,26.907 73.874,37.037 71.828,46.718C71.581,47.885 71.392,49.065 71.129,50.494C70.954,49.705 70.803,49.18 70.723,48.645C69.135,37.989 58.96,28.513 47.977,27.475C35.485,26.293 26.159,33.414 21.91,41.803C20.46,44.667 19.684,47.725 19.433,50.922C18.963,56.903 20.257,62.443 23.592,67.46C23.981,68.045 23.987,68.501 23.676,69.105C21.504,73.329 20.112,77.808 19.626,82.529C19.171,86.948 19.045,91.375 20.302,95.716C23.773,107.698 35.317,115.411 47.816,114.034C58.39,112.869 65.443,107.016 69.582,97.411C70.466,95.362 70.748,93.137 71.151,90.676Z" style="fill:rgb(251,122,36);fill-rule:nonzero;"/>
    <path d="M71.151,90.676C70.749,93.137 70.467,95.361 69.583,97.411C65.444,107.016 58.391,112.869 47.817,114.034C35.318,115.411 23.774,107.697 20.303,95.716C19.045,91.374 19.171,86.948 19.627,82.529C20.114,77.807 21.505,73.329 23.677,69.105C23.988,68.501 23.982,68.045 23.593,67.46C20.258,62.444 18.964,56.903 19.434,50.922C19.685,47.725 20.461,44.667 21.911,41.803C26.159,33.413 35.486,26.293 47.978,27.475C58.962,28.514 69.136,37.989 70.724,48.645C70.804,49.18 70.954,49.705 71.13,50.494C71.393,49.065 71.583,47.886 71.829,46.718C73.875,37.037 83.351,26.907 96.783,26.782C110.397,26.656 120.479,37.333 122.381,47.25C123.185,51.441 123.045,55.628 122.382,59.813C121.719,63.994 120.491,68.013 118.696,71.844C118.3,72.689 118.341,73.297 118.848,74.082C121.78,78.626 123.074,83.614 122.908,89.031C122.561,100.334 114.567,110.47 103.569,113.121C88.214,116.821 76.444,107.638 72.483,96.528C71.837,94.72 71.531,92.832 71.151,90.676ZM99.047,70.818C99.211,70.179 99.706,69.796 100.062,69.323C103.912,64.207 105.937,58.492 105.485,52.057C105.156,47.36 101.293,44.052 96.617,44.227C91.938,44.402 88.412,48.011 88.346,52.693C88.341,53.076 88.364,53.46 88.34,53.841C88.018,58.831 85.265,61.564 81.093,61.869C80.331,61.925 79.567,61.993 78.804,61.995C73.389,62.007 67.975,62.005 62.56,62C60.195,61.998 57.85,62.255 55.598,62.95C45.085,66.194 38.955,73.383 36.925,84.098C36.523,86.218 36.161,88.418 36.856,90.596C37.853,93.719 39.712,96.042 43.003,96.819C46.414,97.624 49.385,96.733 51.745,94.054C53.271,92.322 53.752,90.264 53.866,88.005C54.161,82.195 57.325,79.291 62.601,79.335C70.695,79.402 78.79,79.349 86.885,79.355C88.322,79.356 88.335,79.375 88.342,80.796C88.356,83.421 88.275,86.049 88.376,88.671C88.541,92.951 92.307,96.509 96.673,96.634C101.175,96.763 105.188,93.433 105.481,89.086C105.734,85.324 105.718,81.538 105.471,77.773C105.28,74.858 103.703,72.781 101.031,71.575C100.39,71.287 99.716,71.071 99.047,70.818ZM48.308,61.987C50.049,61.987 51.47,61.971 52.89,61.994C53.594,62.005 53.855,61.702 53.849,61.012C53.826,58.281 53.967,55.541 53.793,52.82C53.563,49.23 51.654,46.635 48.312,45.326C44.885,43.984 41.749,44.75 39.097,47.281C36.433,49.824 36.078,52.934 37.01,56.338C37.866,59.466 39.889,61.243 43.07,61.78C44.918,62.091 46.776,61.942 48.308,61.987Z" style="fill:white;fill-rule:nonzero;"/>
    <path d="M99.047,70.818C99.717,71.071 100.391,71.287 101.032,71.576C103.704,72.781 105.281,74.859 105.472,77.774C105.718,81.539 105.735,85.325 105.482,89.087C105.189,93.434 101.175,96.763 96.674,96.635C92.309,96.51 88.543,92.952 88.377,88.672C88.276,86.051 88.357,83.422 88.343,80.797C88.335,79.376 88.323,79.357 86.886,79.356C78.791,79.35 70.696,79.403 62.602,79.336C57.326,79.292 54.162,82.197 53.867,88.006C53.752,90.265 53.272,92.323 51.746,94.055C49.386,96.733 46.415,97.625 43.004,96.82C39.713,96.043 37.854,93.72 36.857,90.597C36.162,88.42 36.524,86.219 36.926,84.099C38.956,73.384 45.085,66.195 55.599,62.951C57.851,62.256 60.195,61.999 62.561,62.001C67.976,62.006 73.39,62.008 78.805,61.997C79.568,61.995 80.332,61.927 81.094,61.871C85.266,61.566 88.019,58.833 88.341,53.843C88.366,53.462 88.342,53.077 88.347,52.695C88.413,48.014 91.939,44.405 96.618,44.229C101.294,44.054 105.157,47.362 105.486,52.059C105.937,58.494 103.913,64.209 100.063,69.325C99.706,69.796 99.21,70.179 99.047,70.818Z" style="fill:rgb(251,122,36);fill-rule:nonzero;"/>
    <path d="M48.308,61.987C46.775,61.942 44.918,62.092 43.07,61.78C39.889,61.243 37.866,59.466 37.01,56.338C36.079,52.934 36.433,49.823 39.097,47.281C41.749,44.75 44.885,43.985 48.312,45.326C51.654,46.634 53.563,49.23 53.793,52.82C53.967,55.54 53.826,58.281 53.849,61.012C53.855,61.702 53.593,62.006 52.89,61.994C51.47,61.97 50.05,61.987 48.308,61.987Z" style="fill:rgb(251,122,36);fill-rule:nonzero;"/>
    <g transform="matrix(1.50493,0,0,1.50493,-158.741,21.7222)">
        <text x="219.802px" y="66.288px" style="font-family:'HelveticaNeue-Bold', 'Helvetica Neue';font-weight:700;font-size:93.028px;">XAMPP</text>
    </g>
</svg>
