<svg viewBox="0 0 3255 1166" xmlns="http://www.w3.org/2000/svg" xmlns:serif="http://www.serif.com/" fill-rule="evenodd" clip-rule="evenodd" stroke-linejoin="round" stroke-miterlimit="1.414"><g transform="matrix(.72998 0 0 1.00077 -364.985 -740.568)"><path fill="none" d="M499.994 739.999h4456.3v1164.11h-4456.3z"/><clipPath id="a"><path d="M499.994 739.999h4456.3v1164.11h-4456.3z"/></clipPath><g clip-path="url(#a)"><g serif:id="affinity_photo_icon" transform="matrix(3.16375 0 0 2.30769 -490.25 331.537)"><path d="M746 189.99c0-7.169-5.821-12.99-12.99-12.99H325.99c-7.169 0-12.99 5.821-12.99 12.99v407.02c0 7.169 5.821 12.99 12.99 12.99h407.02c7.169 0 12.99-5.821 12.99-12.99V189.99z" fill="none"/><clipPath id="b"><path d="M746 189.99c0-7.169-5.821-12.99-12.99-12.99H325.99c-7.169 0-12.99 5.821-12.99 12.99v407.02c0 7.169 5.821 12.99 12.99 12.99h407.02c7.169 0 12.99-5.821 12.99-12.99V189.99z"/></clipPath><g clip-path="url(#b)"><path d="M746 189.99c0-7.169-5.821-12.99-12.99-12.99H325.99c-7.169 0-12.99 5.821-12.99 12.99v407.02c0 7.169 5.821 12.99 12.99 12.99h407.02c7.169 0 12.99-5.821 12.99-12.99V189.99z" fill="#7e4dd2"/><path d="M746 189.99c0-7.169-5.821-12.99-12.99-12.99H490.53L313 484.491V597.01c0 7.169 5.821 12.99 12.99 12.99h407.02c7.169 0 12.99-5.821 12.99-12.99V189.99z" fill="#7140c2"/><path d="M751.422 615.568l-159.188.035-91.974-159.3h251.396c-.061 53.06-.174 106.206-.234 159.265zm-165.744.03H334.62l125.6-217.3 125.458 217.3zm-257.475 0h-20.736l-.07-113.857 96.53-167.245h86.6c-54.095 93.693-108.229 187.41-162.324 281.103zm220.06-281.077c8.326.104 16.267 4.67 20.541 11.86 6.634 11.378 13.172 22.81 19.758 34.215 4 7.009 4.3 16.016.38 23.354-.094.177-.19.352-.29.528-6.533 11.435-13.167 22.81-19.753 34.215-4.096 7.033-11.855 11.673-20.035 11.945-.199.007-.597 0-.597 0h-37.035-.32c-8.166-.035-16.082-4.316-20.407-11.265-.109-.17-.212-.343-.316-.516-6.63-11.379-13.168-22.81-19.754-34.215-4.04-7.07-4.235-16.14-.385-23.356.095-.176.195-.352.29-.527 6.534-11.435 13.172-22.81 19.753-34.215 4.092-7.017 11.86-11.738 20.035-12.01.204-.007.403-.01.602-.013 12.514-.053 25.023-.053 37.533 0zM751.599 171.4v279.238H568.557L729.777 171.4h21.822zM598.776 386.944L486.226 192l11.895-20.6h225.1L598.776 386.944zm-40.052-58.074l-151.507-.024 75.732-131.172c25.244 43.724 50.53 87.473 75.775 131.196z" fill="#58328a" fill-rule="nonzero"/><path d="M1227.64 999.999h-27.5l-.15-246.558 217.5-376.721h170l-359.85 623.279zM2200 658v342l-347.66-.001L1654.89 658H2200zm-392.66 341.999h-535l267.65-463.064 267.35 463.064zM2200 619h-387.39L2169.99-.001h30L2200 619zm-457.04-242.984c14.81.062 28.98 8.766 36.64 21.665.08.131.23.394.23.394l44.95 77.864s.26.435.38.645c7.35 12.853 7.63 29.049.29 42.136-15.07 26.364-30.37 52.602-45.55 78.903-7.46 12.791-21.58 21.136-36.58 21.323-28.63.12-86.03.054-86.11.054-14.81-.062-29.21-7.963-36.87-20.862-.17-.28-.5-.85-.5-.85s-44.96-77.872-45.06-78.053c-7.35-12.853-7.34-29.459 0-42.546l.33-.577s30.09-52.217 45.16-78.326c7.46-12.791 21.6-21.591 36.6-21.779.25-.001.75-.012.75-.012l84.83.021h.51zM1634.99-.001h490l-265 458.994-245-424.353 20-34.641zm110 337.75h-305l152.5-264.138 152.5 264.138z" fill="url(#_Radial3)" transform="matrix(.433 0 0 .433 -206.6 177)"/><path d="M1203.7 1041.47l-27-.86.32-247.375 240.47-416.515h170l-383.79 664.75zm626.14-2.5l-578.19-3.17 288.34-498.865 289.85 502.035zm391.44-1.49l-348.66-2.36L1654.89 658h567.71l-1.32 379.48zm-796.86-648.76l-235.4 407.738-.31 232.532 8.19.26 369.81-640.53h-142.29zm-152.04 635.2l536.61 2.94-269-465.935-267.61 462.995zM1675.67 670l203.91 353.17 329.74 2.23 1.23-355.4h-534.88zm66.78-293.984h.51l.18.001.17.002.17.003.18.003.17.005.17.005.17.006.18.006.17.008.17.008.18.009.17.009.17.011.17.011.18.012.17.013.17.014.17.014.18.015.17.016.17.016.17.018.17.018.18.019.17.019.17.021.17.021.17.022.17.022.17.024.17.024.17.025.34.052.34.055.34.057.34.061.34.064.34.066.34.07.33.072.34.075.34.078.33.081.34.084.33.086.33.09.33.092.34.094.33.098.33.1.33.103.32.106.33.109.33.111.32.114.33.116.32.119.32.122.33.125.32.127.32.13.32.132.31.135.32.137.32.14.31.143.32.145.31.147.31.15.31.153.31.155.31.157.31.16.3.163.31.165.3.167.3.169.3.172.3.175.3.177.3.179.29.181.3.184.29.186.29.188.29.191.29.193.29.195.28.198.29.199.28.202.28.205.28.206.28.208.28.211.27.213.28.215.27.217.27.219.27.222.27.223.26.226.27.227.26.23.26.232.26.233.26.236.25.238.26.24.25.241.25.244.25.246.24.247.25.25.24.252.24.253.24.255.23.257.24.259.23.261.23.263.23.264.23.267.23.268.22.27.22.272.22.273.21.275.22.277.21.279.21.28.21.283.21.283.2.286.2.287.2.289.2.29.19.292.19.294.19.295.19.297.19.299.18.3.18.301.23.394 44.95 77.864.38.645.17.302.17.303.16.304.16.306.17.306.15.308.16.309.15.31.15.311.15.312.14.313.15.314.14.315.13.316.14.317.13.318.13.319.13.32.12.321.12.321.12.323.12.323.11.324.11.325.11.326.11.326.1.327.1.328.1.329.09.329.1.33.09.331.08.331.09.332.08.333.08.333.08.333.07.335.07.334.07.335.07.336.06.336.06.337.06.337.05.337.06.338.05.338.04.339.05.339.04.339.04.34.04.339.03.34.03.341.03.34.03.341.02.341.02.341.02.341.02.342.01.341.01.342.01.342V498.59l-.01.342v.341l-.02.342-.01.342-.02.341-.02.342-.02.341-.02.341-.03.341-.03.341-.03.341-.04.341-.04.34-.04.34-.04.339-.05.34-.05.339-.05.339-.06.338-.05.338-.06.338-.07.337-.06.337-.07.337-.07.336-.08.335-.07.335-.08.335-.08.334-.09.333-.09.333-.09.332-.09.332-.1.331-.09.33-.11.33-.1.329-.11.328-.11.328-.11.327-.11.326-.12.326-.12.324-.13.324-.12.323-.13.322-.13.321-.14.321-.13.319-.15.319-.14.318-.14.316-.15.316-.15.315-.16.314-.15.312-.16.312-.17.31-.16.31-.17.308-.17.308-1.41 2.471-1.42 2.47-1.41 2.47-1.42 2.47-1.42 2.468-1.42 2.468-1.42 2.468-1.42 2.467-1.42 2.467-1.42 2.466-2.85 4.931-2.85 4.93-2.85 4.929-2.86 4.928-2.85 4.928-5.71 9.855-2.85 4.928-2.85 4.929-2.85 4.929-2.85 4.931-.18.299-.18.297-.18.296-.18.294-.18.292-.19.291-.19.289-.2.287-.19.286-.2.284-.2.282-.2.28-.2.279-.21.277-.21.275-.21.273-.21.271-.22.27-.21.268-.22.266-.22.264-.23.262-.22.261-.23.258-.23.257-.23.255-.23.253-.24.251-.24.249-.24.247-.24.245-.24.244-.25.241-.25.239-.24.237-.26.236-.25.233-.25.231-.26.23-.26.227-.26.225-.26.223-.26.221-.27.219-.26.217-.27.214-.27.213-.28.21-.27.209-.28.206-.27.204-.28.202-.28.2-.28.197-.28.195-.29.193-.29.191-.28.189-.29.186-.29.184-.3.182-.29.18-.29.177-.3.175-.3.173-.3.17-.3.168-.3.166-.3.163-.31.161-.3.159-.31.156-.31.154-.31.151-.31.149-.31.147-.31.144-.32.142-.31.139-.32.137-.32.134-.32.132-.32.129-.32.127-.32.124-.32.122-.32.119-.33.117-.33.114-.32.112-.33.109-.33.106-.33.104-.33.101-.33.098-.33.096-.34.094-.33.09-.34.088-.33.085-.34.083-.34.08-.33.077-.34.074-.34.072-.34.069-.34.066-.34.063-.35.061-.34.058-.34.055-.35.052-.34.049-.35.047-.34.044-.35.041-.35.038-.34.035-.35.032-.35.03-.35.026-.35.024-.35.02-.35.018-.35.015-.35.012-.35.009-.35.005-2.77.011-2.92.01-3.05.008-3.18.008-3.28.007-3.37.006-3.45.005-3.5.004-7.12.007-7.17.004-7.08.002h-6.87l-6.54-.001-6.08-.002-5.49-.003-4.78-.004-6.91-.005-2.55-.003-.35-.003-.34-.006-.35-.008-.35-.012-.34-.014-.35-.017-.34-.02-.35-.023-.34-.025-.35-.029-.34-.031-.35-.034-.34-.036-.34-.04-.35-.042-.34-.045-.34-.048-.34-.05-.35-.053-.34-.056-.34-.059-.34-.061-.33-.064-.34-.067-.34-.069-.34-.072-.34-.075-.33-.077-.34-.08-.33-.083-.34-.085-.33-.088-.33-.09-.33-.093-.33-.096-.34-.098-.33-.101-.32-.103-.33-.106-.33-.109-.32-.111-.33-.114-.33-.116-.32-.118-.32-.121-.32-.124-.32-.126-.32-.129-.32-.131-.32-.134-.31-.136-.32-.138-.31-.141-.32-.144-.31-.145-.31-.149-.31-.15-.31-.153-.31-.156-.3-.158-.31-.16-.3-.163-.3-.165-.3-.167-.3-.17-.3-.172-.3-.174-.3-.177-.29-.179-.29-.181-.3-.184-.29-.186-.28-.188-.29-.191-.29-.192-.28-.195-.28-.198-.29-.199-.27-.202-.28-.204-.28-.206-.27-.209-.28-.21-.27-.213-.27-.215-.27-.217-.26-.22-.27-.221-.26-.224-.26-.226-.26-.228-.26-.23-.26-.232-.25-.234-.25-.237-.25-.238-.25-.241-.25-.243-.24-.244-.24-.247-.24-.249-.24-.251-.24-.253-.23-.255-.24-.257-.23-.259-.23-.262-.22-.263-.23-.265-.22-.267-.22-.269-.22-.271-.21-.273-.22-.275-.21-.277-.21-.278-.2-.281-.21-.283-.2-.284-.2-.287-.2-.288-.1-.145-.09-.146-.1-.145-.1-.147-.09-.146-.1-.148-.09-.147-.1-.149-.09-.148-.09-.149-.09-.15-.09-.15-.1-.15-.08-.151-.5-.85-45.06-78.053-.09-.151-.08-.151-.08-.152-.09-.152-.08-.152-.08-.152-.17-.306-.16-.307-.15-.309-.16-.31-.15-.311-.15-.312-.15-.313-.14-.315-.14-.315-.14-.317-.14-.318-.13-.319-.13-.32-.13-.321-.12-.322-.13-.323-.12-.324-.11-.325-.12-.326-.11-.327-.11-.328-.1-.329-.11-.329-.1-.331-.1-.331-.09-.332-.09-.332-.09-.334-.09-.334-.09-.335-.08-.336-.08-.336-.07-.337-.08-.337-.07-.339-.07-.338-.06-.34-.07-.339-.06-.341-.05-.341-.06-.341-.05-.342-.05-.342-.05-.343-.04-.343-.04-.343-.04-.344-.04-.344-.03-.344-.04-.345-.02-.345-.03-.345-.02-.346-.02-.346-.02-.345-.01-.346-.01-.347-.01-.346-.01-.346v-.347l-.01-.346.01-.347v-.347l.01-.346.01-.347.01-.347.01-.346.02-.346.02-.347.02-.346.03-.346.03-.346.03-.346.03-.345.04-.345.04-.345.04-.345.04-.345.05-.344.05-.344.05-.343.06-.343.06-.343.06-.342.06-.342.07-.341.06-.341.08-.341.07-.34.08-.339.08-.339.08-.338.08-.338.09-.337.09-.336.09-.336.1-.335.1-.334.1-.334.1-.332.11-.332.11-.332.11-.33.11-.33.12-.328.12-.328.12-.327.13-.326.13-.326.13-.324.13-.323.13-.322.14-.321.14-.321.15-.319.14-.318.15-.317.15-.315.16-.315.16-.314.16-.312.16-.311.16-.31.17-.309.17-.307.33-.577 4.94-8.567 5.38-9.332 6.61-11.473 7.32-12.698 7.5-13.003 7.15-12.391 3.27-5.68 2.99-5.182.18-.299.18-.298.18-.296.18-.294.19-.293.19-.292.19-.29.19-.288.19-.287.2-.286.2-.283.2-.283.21-.28.2-.279.21-.277.21-.276.22-.273.21-.273.22-.27.22-.269.22-.267.22-.265.23-.264.22-.262.24-.26.23-.258.23-.256.24-.255.23-.253.24-.251.25-.249.24-.247.24-.245.25-.244.25-.241.25-.24.26-.237.25-.236.26-.234.25-.231.27-.23.26-.228.26-.226.27-.223.26-.222.27-.22.27-.217.27-.216.28-.213.27-.211.28-.209.28-.207.28-.205.28-.203.28-.2.29-.199.29-.196.28-.194.29-.191.29-.19.3-.187.29-.185.3-.182.29-.181.3-.178.3-.176.3-.173.3-.171.31-.169.3-.166.31-.164.3-.161.31-.159.31-.157.31-.154.31-.152.32-.149.31-.147.32-.144.31-.142.32-.139.32-.137.32-.134.32-.132.32-.129.33-.127.32-.124.33-.121.32-.118.33-.116.33-.114.33-.111.33-.108.33-.105.33-.103.33-.099.33-.098.34-.094.33-.092.34-.089.34-.086.33-.083.34-.081.34-.077.34-.075.34-.072.34-.069.34-.067.35-.063.34-.061.34-.057.35-.055.17-.026.17-.025.17-.025.18-.024.17-.023.17-.023.18-.022.17-.021.17-.02.18-.02.17-.018.17-.018.18-.018.17-.016.17-.016.18-.015.17-.014.18-.013.17-.013.18-.012.17-.011.18-.011.17-.009.18-.009.17-.008.18-.007.17-.007.18-.006.17-.005.18-.004.17-.003.18-.003.23-.002.24-.004.28-.006 84.83.021zM2220.63 619h-408.02l377.98-654.681 31.11-1.909-1.07 656.59zm-563.06-231.002l-.31.006-.24.002-.12.002-.12.002-.13.003-.12.004-.12.004-.12.004-.12.005-.12.006-.13.006-.12.007-.12.007-.12.008-.12.008-.13.009-.12.009-.12.01-.12.011-.12.011-.12.011-.13.012-.12.013-.12.013-.12.014-.12.014-.13.015-.11.015-.13.016-.12.016-.12.017-.12.017-.12.019-.11.016-.26.04-.24.041-.24.042-.24.045-.24.047-.25.049-.24.052-.24.053-.24.054-.23.057-.25.06-.24.062-.24.063-.23.065-.25.068-.23.069-.24.071-.24.073-.23.076-.24.079-.24.079-.24.082-.23.083-.24.086-.23.087-.24.089-.22.09-.24.094-.24.098-.22.095-.23.099-.24.102-.22.101-.23.106-.23.108-.23.107-.23.111-.23.114-.22.113-.22.114-.22.116-.23.122-.23.124-.22.122-.21.123-.22.126-.22.128-.22.134-.22.131-.21.133-.23.14-.2.132-.22.139-.22.146-.2.137-.21.145-.21.146-.2.142-.21.15-.22.157-.2.148-.2.155-.21.157-.19.153-.21.161-.19.155-.2.166-.19.159-.19.16-.21.177-.19.165-.19.166-.18.167-.19.169-.19.179-.19.172-.19.182-.18.176-.17.169-.19.187-.18.181-.17.182-.18.183-.16.177-.19.196-.17.188-.16.18-.17.191-.16.193-.17.195-.17.196-.16.198-.16.189-.15.19-.16.202-.16.204-.14.194-.16.207-.15.197-.14.198-.15.211-.14.202-.15.213-.14.204-.14.206-.14.218-.13.207-.13.197-.13.211-.14.223-.12.213-.13.21-2.96 5.14-3.28 5.678-7.15 12.39-7.49 13.002-7.32 12.696-6.61 11.473-5.38 9.332-4.93 8.548-.28.498-.11.198-.12.213-.12.227-.12.229-.11.216-.11.217-.11.219-.11.232-.11.234-.11.235-.1.222-.1.222-.1.238-.09.225-.1.24-.1.24-.09.227-.08.227-.09.229-.09.244-.09.245-.08.246-.08.231-.08.232-.07.248-.08.234-.07.249-.08.251-.06.235-.07.236-.07.252-.06.237-.06.238-.06.27-.06.238-.05.239-.06.256-.05.24-.05.257-.05.257-.05.241-.04.242-.04.259-.04.242-.04.243-.04.276-.03.243-.03.243-.03.261-.03.244-.03.261-.03.261-.02.245-.02.245-.01.245-.02.261-.02.262-.01.245-.01.263-.01.262-.01.245v.49l-.01.263.01.262v.506l.01.245.01.245.01.261.01.261.02.261.01.244.02.244.02.243.02.26.03.26.03.242.02.242.03.259.04.258.03.241.03.24.04.257.04.256.05.239.04.239.05.255.04.254.05.237.05.236.06.252.05.236.06.235.06.266.06.233.06.233.07.248.06.232.07.246.08.246.07.229.07.228.07.228.08.242.09.242.07.225.09.239.08.224.09.223.09.236.09.236.09.22.09.219.1.233.1.231.1.216.1.216.11.228.11.227.1.213.11.211.11.223.11.21.12.237.06.1.05.091.05.091.06.115.07.116.05.09 45.03 78.004.45.781.05.072.07.112.06.111.06.087.05.087.07.11.09.134.05.087.07.108.07.108.06.086.07.107.07.107.07.104.14.205.14.199.14.197.15.208.14.195.15.193.15.202.16.2.15.189.15.187.17.205.15.183.15.182.16.19.17.189.17.187.15.175.18.184.17.191.16.171.18.178.17.177.18.175.17.174.18.171.19.178.18.168.18.167.18.165.18.163.19.169.2.167.18.159.19.156.19.155.2.16.19.158.2.15.2.155.19.147.2.151.21.149.2.147.2.146.2.138.21.143.21.139.22.144.2.132.21.135.22.138.2.126.21.13.23.132.21.126.22.124.22.126.21.121.22.119.23.12.22.119.22.113.22.111.23.114.22.108.23.109.23.107.22.102.24.104.23.102.23.099.23.098.23.093.23.094.24.095.24.09.23.086.23.086.24.086.24.083.23.08.24.079.24.078.24.075.24.073.24.072.24.069.24.067.24.066.25.065.24.061.24.059.24.059.25.056.24.054.25.053.24.049.25.049.24.046.25.044.24.043.25.04.25.038.24.037.25.034.25.033.25.03.24.029.25.026.24.024.25.023.25.02.25.018.25.017.24.014.25.012.25.011.25.008.25.006.24.004.26.002 2.5.003 6.91.005 4.78.004 5.48.003 6.08.002 6.54.001h6.87l7.08-.002 7.16-.004 7.11-.007 3.51-.004 3.44-.005 3.37-.006 3.28-.007 3.17-.008 3.05-.008 2.91-.01 2.68-.01.23-.004.25-.006.25-.009.25-.01.24-.013.25-.014.25-.017.25-.019.25-.021.25-.023.25-.025.24-.027.25-.029.25-.032.24-.033.25-.035.25-.038.24-.039.25-.041.24-.044.25-.046.24-.047.25-.05.24-.051.24-.053.25-.055.24-.058.25-.061.24-.061.24-.062.23-.065.24-.067.25-.07.24-.071.23-.073.25-.076.23-.075.23-.079.25-.082.23-.083.23-.083.24-.086.24-.09.23-.089.23-.092.23-.094.23-.094.24-.101.22-.097.23-.1.24-.107.22-.102.22-.105.23-.11.23-.112.22-.11.22-.112.23-.118.22-.115.21-.118.23-.123.21-.121.22-.124.22-.129.22-.126.2-.124.22-.131.22-.136.21-.134.21-.136.21-.137.21-.14.21-.141.19-.137.21-.144.2-.147.2-.142.21-.15.21-.158.19-.148.19-.148.2-.157.19-.153.2-.16.2-.163.18-.157.19-.159.19-.167.19-.163.18-.164.19-.172.18-.167.18-.169.18-.17.18-.172.18-.181.18-.175.16-.168.19-.187.17-.18.16-.172.17-.183.16-.185.17-.186.17-.188.16-.19.16-.19.16-.183.15-.184.16-.195.15-.198.16-.199.15-.19.14-.191.15-.203.15-.206.14-.196.14-.197.15-.209.14-.201.13-.201.14-.203.13-.204.14-.218.12-.207.13-.209.13-.21.12-.209 2.83-4.893 2.85-4.935 2.85-4.93 2.86-4.93 5.71-9.856 2.85-4.926 2.85-4.926 2.85-4.926 2.85-4.926 2.84-4.927 1.42-2.462 1.42-2.463 1.42-2.463 1.42-2.465 1.42-2.464 1.41-2.465 1.42-2.465 1.41-2.464 1.41-2.466 1.38-2.405.11-.198.12-.215.11-.216.11-.217.12-.23.11-.219.11-.218.11-.233.11-.22.1-.221.1-.222.1-.236.1-.237.09-.209.09-.224.1-.254.09-.225.09-.226.08-.227.08-.227.09-.242.08-.228.08-.244.07-.229.07-.23.08-.245.07-.231.07-.247.07-.231.06-.232.07-.248.05-.233.06-.234.06-.233.05-.25.06-.251.05-.235.05-.235.05-.252.04-.252.04-.219.04-.253.05-.253.03-.22.04-.254.03-.254.03-.238.03-.254.03-.238.02-.238.03-.255.02-.256.02-.238.02-.239.02-.256.01-.238.01-.239.01-.256.01-.256.01-.24v-1.246l-.01-.239v-.238l-.01-.256-.01-.256-.02-.238-.01-.238-.02-.256-.02-.255-.02-.254-.02-.238-.03-.237-.02-.237-.03-.254-.03-.254-.03-.236-.04-.253-.04-.252-.03-.236-.04-.235-.05-.251-.04-.251-.05-.234-.05-.25-.04-.233-.06-.249-.05-.249-.05-.232-.06-.248-.06-.231-.06-.23-.06-.246-.08-.261-.06-.229-.07-.229-.07-.243-.07-.227-.07-.242-.08-.242-.08-.225-.08-.24-.08-.24-.08-.223-.09-.238-.09-.237-.09-.221-.08-.221-.1-.235-.1-.234-.1-.233-.1-.232-.09-.217-.11-.23-.1-.216-.1-.228-.12-.228-.1-.213-.11-.226-.12-.225-.12-.224-.11-.209-.11-.209-.12-.221-.13-.226-.35-.601-44.94-77.84-.18-.309-.12-.205-.13-.216-.13-.202-.14-.224-.14-.212-.14-.21-.14-.221-.14-.207-.15-.218-.15-.204-.14-.203-.16-.213-.15-.211-.16-.209-.15-.198-.15-.195-.16-.205-.17-.204-.16-.202-.15-.189-.17-.199-.18-.207-.16-.186-.16-.184-.18-.201-.17-.191-.18-.188-.17-.187-.18-.186-.18-.193-.18-.174-.17-.18-.19-.187-.19-.178-.19-.183-.18-.174-.19-.173-.19-.178-.19-.169-.18-.167-.2-.173-.2-.17-.19-.163-.19-.16-.2-.166-.22-.17-.19-.155-.2-.154-.2-.158-.2-.156-.22-.16-.2-.147-.2-.145-.21-.154-.21-.147-.21-.145-.21-.143-.21-.141-.22-.139-.21-.138-.22-.14-.21-.133-.22-.132-.21-.13-.22-.128-.22-.129-.23-.129-.22-.122-.21-.12-.23-.122-.23-.12-.21-.114-.22-.113-.23-.114-.23-.112-.23-.109-.22-.105-.23-.106-.23-.104-.23-.101-.23-.1-.22-.095-.24-.098-.23-.093-.22-.09-.24-.091-.23-.087-.23-.086-.23-.083-.24-.081-.24-.081-.23-.077-.23-.075-.23-.073-.24-.072-.23-.069-.24-.067-.24-.067-.23-.063-.24-.06-.23-.06-.24-.057-.24-.055-.23-.053-.24-.05-.24-.049-.24-.047-.23-.045-.24-.043-.24-.04-.23-.038-.25-.038-.11-.016-.12-.017-.12-.016-.11-.015-.12-.015-.13-.016-.12-.014-.11-.013-.12-.013-.12-.013-.12-.012-.12-.011-.12-.011-.12-.011-.12-.01-.11-.009-.12-.009-.12-.008-.12-.008-.12-.007-.12-.007-.12-.006-.12-.005-.12-.006-.12-.004-.12-.004-.11-.004-.12-.003-.12-.002-.12-.002-.12-.001-.11-.001h-.47l-84.7-.021-.18.003zm540.19-412.096L1833.4 607h375.25l1.03-631.829-11.92.731zm-337.77 483.091l-245-424.353 39.05-67.627 491.25-2.167-285.3 494.147zM1660.98-21.018l-32.13 55.658 231.14 400.353 264.46-458.055-463.47 2.044zm84.01 358.767h-305l152.5-264.138 152.5 264.138zm-284.21-12h263.43L1592.49 97.611l-131.71 228.138z" fill="url(#_Linear4)" transform="matrix(.433 0 0 .433 -206.6 177)"/></g></g><g fill="#2f2f2f" fill-rule="nonzero"><path d="M2480.059 1215.078h-226.58v524.155h140.264v-174.706h86.316c211.482 0 320.456-53.531 320.456-175.51 0-121.98-108.974-173.94-320.456-173.94zm-4.311 268.385h-82.005v-187.321h82.005c118.684 0 182.342 20.476 182.342 92.874s-63.658 94.447-182.342 94.447zM2884.676 1739.233h134.87v-214.854c0-75.543 48.55-108.598 117.607-108.598 59.342 0 89.555 25.961 89.555 81.832v241.62h134.846V1484.23c0-101.504-74.441-148.746-181.245-148.746-75.529 0-128.394 25.998-157.529 71.63h-3.233V1190.69h-134.87v548.544zM3715.46 1750.239c162.969 0 268.69-80.26 268.69-206.956 0-126.734-105.721-207.798-268.69-207.798-161.814 0-268.638 85.013-268.638 207.798 0 126.696 104.668 206.956 268.639 206.956zm0-75.543c-76.596 0-130.534-46.437-130.534-131.413 0-85.781 53.938-132.255 130.535-132.255 77.699 0 130.585 46.474 130.585 132.255 0 84.976-52.886 131.413-130.585 131.413zM4318.607 1675.5c-50.68 0-70.13-21.28-70.13-69.253v-187.321h120.86v-71.63h-120.86v-125.93l-134.846 19.673v106.257h-92.787v71.63h92.787v196.755c0 92.874 53.939 132.985 170.437 132.985 36.694 0 74.491-3.912 104.669-16.527v-70.826c-17.245 7.862-42.058 14.187-70.13 14.187zM4687.603 1750.239c162.968 0 268.689-80.26 268.689-206.956 0-126.734-105.721-207.798-268.69-207.798-161.814 0-268.638 85.013-268.638 207.798 0 126.696 104.668 206.956 268.639 206.956zm0-75.543c-76.597 0-130.535-46.437-130.535-131.413 0-85.781 53.938-132.255 130.535-132.255 77.699 0 130.585 46.474 130.585 132.255 0 84.976-52.886 131.413-130.585 131.413z"/></g><path d="M2862.428 764.25h-169.43v102.715h96.941v23.97h-96.94v128.85h-35.311V740h204.74v24.25zm883.022 255.534h-35.702V740h35.702v279.784zm-497.908 0h-35.745V740h35.745v279.784zm-108.06-255.533h-169.43v102.714h96.942v23.97h-96.941v128.85h-35.31V740h204.74v24.25zm918.072 0h-101.849v255.533h-35.744V764.251h-102.414V740h240.007v24.25zm-702.3 255.533h-35.31V740h38.003l243.481 235.926V740h35.745v279.784h-34.833l-247.086-240.089v240.09zm932.187 0h-36.135v-68.426L4085.872 740h40.74l142.761 181.357L4412.135 740h40.74L4287.44 951.358v68.426zm-1661.329 0h-38.046l-148.539-244.182c-9.294 15.618-99.72 165.602-109.362 181.49 18.936 0 181.026 1.175 190.32 1.21l14.767 23.536c-32.314-.146-177.204-.488-220.115-.488-3.909 6.019-20.37 32.687-23.584 38.434h-38.046L2423.457 740h32.705l169.95 279.784z" fill="#2f2f2f" serif:id="Affinity Logo"/></g></g><defs><radialGradient id="_Radial3" cx="0" cy="0" r="1" gradientUnits="userSpaceOnUse" gradientTransform="translate(1964.33 -187.942) scale(1187.94)"><stop offset="0" stop-color="#f9a6ff"/><stop offset="1" stop-color="#ea73ff"/></radialGradient><linearGradient id="_Linear4" x2="1" gradientUnits="userSpaceOnUse" gradientTransform="matrix(0 1000 -1000 0 1892.5 0)"><stop offset="0" stop-color="#f7b3ff"/><stop offset="1" stop-color="#ee8aff"/></linearGradient></defs></svg>