<?xml version="1.0" encoding="utf-8"?>
<!-- Generator: Adobe Illustrator 24.1.2, SVG Export Plug-In . SVG Version: 6.00 Build 0)  -->
<svg version="1.1" id="レイヤー_1" xmlns="http://www.w3.org/2000/svg" xmlns:xlink="http://www.w3.org/1999/xlink" x="0px"
	 y="0px" viewBox="0 0 135 40" style="enable-background:new 0 0 135 40;" xml:space="preserve">
<style type="text/css">
	.st0{fill:#A6A6A6;}
	.st1{fill:#FFFFFF;}
	.st2{fill:url(#SVGID_1_);}
	.st3{fill:url(#SVGID_2_);}
	.st4{fill:url(#SVGID_3_);}
	.st5{fill:url(#SVGID_4_);}
	.st6{opacity:0.2;enable-background:new    ;}
	.st7{opacity:0.12;enable-background:new    ;}
	.st8{opacity:0.25;fill:#FFFFFF;enable-background:new    ;}
	.st9{fill:#FFFFFF;stroke:#FFFFFF;stroke-width:0.2;stroke-miterlimit:10;}
</style>
<g>
	<g id="artwork">
		<g>
			<path d="M130,40H5c-2.8,0-5-2.2-5-5V5c0-2.8,2.2-5,5-5h125c2.8,0,5,2.2,5,5v30C135,37.8,132.8,40,130,40z"/>
		</g>
		<path class="st0" d="M130,0.8c2.3,0,4.2,1.9,4.2,4.2v30c0,2.3-1.9,4.2-4.2,4.2H5c-2.3,0-4.2-1.9-4.2-4.2V5c0-2.3,1.9-4.2,4.2-4.2
			L130,0.8 M130,0H5C2.2,0,0,2.3,0,5v30c0,2.8,2.2,5,5,5h125c2.8,0,5-2.2,5-5V5C135,2.3,132.8,0,130,0L130,0z"/>
		<path class="st1" d="M64.7,12.8c-2.1,0-3.7,1.6-3.7,3.7s1.7,3.7,3.7,3.7c2.1,0,3.7-1.6,3.7-3.7C68.5,14.4,66.8,12.8,64.7,12.8z
			 M64.7,18.8c-1.1,0-2.1-0.9-2.1-2.3c0-1.3,1-2.3,2.1-2.3s2.1,0.9,2.1,2.3C66.8,17.8,65.9,18.8,64.7,18.8z M56.6,12.8
			c-2.1,0-3.7,1.6-3.7,3.7s1.7,3.7,3.7,3.7c2.1,0,3.7-1.6,3.7-3.7S58.6,12.8,56.6,12.8z M56.6,18.8c-1.1,0-2.1-0.9-2.1-2.3
			c0-1.3,1-2.3,2.1-2.3s2.1,0.9,2.1,2.3C58.7,17.8,57.7,18.8,56.6,18.8z M46.9,13.9v1.6h3.8c-0.1,0.9-0.4,1.5-0.9,2
			s-1.4,1.2-2.9,1.2c-2.3,0-4.1-1.9-4.1-4.2s1.8-4.2,4.1-4.2c1.3,0,2.2,0.5,2.8,1.1l1.1-1.1c-0.9-0.9-2.2-1.6-4-1.6
			c-3.2,0-5.9,2.6-5.9,5.8s2.7,5.8,5.9,5.8c1.7,0,3-0.6,4-1.6s1.4-2.5,1.4-3.7c0-0.4,0-0.7-0.1-1h-5.2V13.9z M86.5,15.2
			c-0.3-0.8-1.3-2.4-3.2-2.4c-1.9,0-3.5,1.5-3.5,3.7c0,2.1,1.6,3.7,3.7,3.7c1.7,0,2.7-1,3.1-1.6l-1.3-0.8c-0.4,0.6-1,1-1.8,1
			s-1.4-0.4-1.8-1.1l5-2.1L86.5,15.2z M81.4,16.4c0-1.4,1.1-2.2,1.9-2.2c0.6,0,1.2,0.3,1.4,0.8L81.4,16.4z M77.4,20H79V9.1h-1.6V20z
			 M74.7,13.6L74.7,13.6c-0.4-0.4-1.1-0.8-2-0.8c-1.9,0-3.6,1.6-3.6,3.7s1.7,3.7,3.6,3.7c0.9,0,1.6-0.4,2-0.8h0.1v0.5
			c0,1.4-0.8,2.2-2,2.2c-1,0-1.6-0.7-1.9-1.3l-1.4,0.6c0.4,1,1.5,2.2,3.3,2.2c1.9,0,3.5-1.1,3.5-3.9V13h-1.5L74.7,13.6L74.7,13.6z
			 M72.8,18.8c-1.1,0-2.1-0.9-2.1-2.2s0.9-2.3,2.1-2.3c1.1,0,2,1,2,2.3C74.8,17.8,74,18.8,72.8,18.8z M94.2,9.1h-3.9V20h1.6v-4.1
			h2.3c1.8,0,3.6-1.3,3.6-3.4S96,9.1,94.2,9.1z M94.2,14.3h-2.3v-3.7h2.3c1.2,0,1.9,1,1.9,1.9C96.1,13.3,95.4,14.3,94.2,14.3z
			 M104.3,12.8c-1.2,0-2.4,0.5-2.9,1.7l1.4,0.6c0.3-0.6,0.9-0.8,1.5-0.8c0.8,0,1.7,0.5,1.7,1.4v0.1c-0.3-0.2-0.9-0.4-1.7-0.4
			c-1.6,0-3.1,0.9-3.1,2.5c0,1.5,1.3,2.4,2.7,2.4c1.1,0,1.7-0.5,2.1-1.1h0.1V20h1.6v-4.2C107.6,13.9,106.1,12.8,104.3,12.8z
			 M104.1,18.8c-0.5,0-1.3-0.3-1.3-0.9c0-0.8,0.9-1.2,1.7-1.2c0.7,0,1.1,0.2,1.5,0.4C105.9,18,105,18.8,104.1,18.8z M113.3,13
			l-1.9,4.7h-0.1l-1.9-4.7h-1.8l2.9,6.6l-1.7,3.7h1.7L115,13C115,13,113.3,13,113.3,13z M98.6,20h1.6V9.1h-1.6V20z"/>
		
			<linearGradient id="SVGID_1_" gradientUnits="userSpaceOnUse" x1="21.7949" y1="734.7049" x2="5.0125" y2="751.4873" gradientTransform="matrix(1 0 0 1 0 -725.9998)">
			<stop  offset="0" style="stop-color:#00A0FF"/>
			<stop  offset="6.574450e-03" style="stop-color:#00A1FF"/>
			<stop  offset="0.2601" style="stop-color:#00BEFF"/>
			<stop  offset="0.5122" style="stop-color:#00D2FF"/>
			<stop  offset="0.7604" style="stop-color:#00DFFF"/>
			<stop  offset="1" style="stop-color:#00E3FF"/>
		</linearGradient>
		<path class="st2" d="M10.4,7.5C10.1,7.8,10,8.3,10,8.9V31c0,0.6,0.2,1.1,0.5,1.4l0.1,0.1L23,20.1V20v-0.1L10.4,7.5L10.4,7.5z"/>
		
			<linearGradient id="SVGID_2_" gradientUnits="userSpaceOnUse" x1="33.8343" y1="746.0498" x2="9.6374" y2="746.0498" gradientTransform="matrix(1 0 0 1 0 -725.9998)">
			<stop  offset="0" style="stop-color:#FFE000"/>
			<stop  offset="0.4087" style="stop-color:#FFBD00"/>
			<stop  offset="0.7754" style="stop-color:#FFA500"/>
			<stop  offset="1" style="stop-color:#FF9C00"/>
		</linearGradient>
		<path class="st3" d="M27,24.3l-4.1-4.1V20v-0.1l4.1-4.1l0.1,0.1l4.9,2.8c1.4,0.8,1.4,2.1,0,2.9L27,24.3L27,24.3z"/>
		
			<linearGradient id="SVGID_3_" gradientUnits="userSpaceOnUse" x1="24.8154" y1="748.2844" x2="2.0571" y2="771.0427" gradientTransform="matrix(1 0 0 1 0 -725.9998)">
			<stop  offset="0" style="stop-color:#FF3A44"/>
			<stop  offset="1" style="stop-color:#C31162"/>
		</linearGradient>
		<path class="st4" d="M27.1,24.2L22.9,20L10.4,32.5c0.5,0.5,1.2,0.5,2.1,0.1L27.1,24.2"/>
		
			<linearGradient id="SVGID_4_" gradientUnits="userSpaceOnUse" x1="7.2617" y1="726.2116" x2="17.4243" y2="736.3741" gradientTransform="matrix(1 0 0 1 0 -725.9998)">
			<stop  offset="0" style="stop-color:#32A071"/>
			<stop  offset="6.850000e-02" style="stop-color:#2DA771"/>
			<stop  offset="0.4762" style="stop-color:#15CF74"/>
			<stop  offset="0.8009" style="stop-color:#06E775"/>
			<stop  offset="1" style="stop-color:#00F076"/>
		</linearGradient>
		<path class="st5" d="M27.1,15.8L12.5,7.5c-0.9-0.5-1.6-0.4-2.1,0.1L22.9,20L27.1,15.8z"/>
		<path class="st6" d="M27,24.1l-14.5,8.2c-0.8,0.5-1.5,0.4-2,0l0,0l-0.1,0.1l0,0l0.1,0.1l0,0c0.5,0.4,1.2,0.5,2,0L27,24.1L27,24.1z
			"/>
		<path class="st7" d="M10.4,32.3C10.1,32,10,31.5,10,30.9V31c0,0.6,0.2,1.1,0.5,1.4v-0.1H10.4z"/>
		<path class="st7" d="M32,21.3l-5,2.8l0.1,0.1l4.9-2.8c0.7-0.4,1-0.9,1-1.4l0,0C33,20.5,32.6,20.9,32,21.3z"/>
		<path class="st8" d="M12.5,7.6L32,18.7c0.6,0.4,1,0.8,1,1.3l0,0c0-0.5-0.3-1-1-1.4L12.5,7.6C11.1,6.7,10,7.3,10,8.9V9
			C10,7.5,11.1,6.8,12.5,7.6z"/>
	</g>
	<g id="Layer_3">
		<g>
			<g>
				<path class="st9" d="M41.8,27c0.6-0.1,2.3-0.2,3.9-0.4c1-0.1,1.8-0.1,2.4-0.2v0.7c-0.5,0-1.3,0-1.7,0.1c-1.3,0.4-2,1.8-2,2.8
					c0,1.7,1.6,2.3,3.1,2.3l-0.3,0.8c-1.6-0.1-3.5-1-3.5-2.9c0-1.4,0.8-2.5,1.7-3c-0.8,0.1-3.2,0.3-4.2,0.5L41,27.1
					C41.4,27.1,41.6,27,41.8,27z M47.6,29.6l-0.5,0.2c-0.2-0.4-0.5-0.9-0.7-1.3l0.5-0.2C47.1,28.6,47.4,29.2,47.6,29.6z M48.6,29.2
					l-0.5,0.2c-0.2-0.4-0.5-0.9-0.8-1.3l0.5-0.2C48,28.2,48.4,28.8,48.6,29.2z"/>
				<path class="st9" d="M57.6,30.8h-3.7v2c0,0.5-0.1,0.7-0.5,0.8c-0.3,0.1-0.9,0.1-1.9,0.1c-0.1-0.2-0.2-0.5-0.3-0.7
					c0.8,0,1.5,0,1.7,0s0.3-0.1,0.3-0.3v-2h-3.7V30h3.7v-1.5h-3.1V28h3.1v-1.4c-1,0.1-2,0.2-2.9,0.2c0-0.2-0.1-0.4-0.2-0.6
					c2.1-0.1,4.7-0.3,6.1-0.8l0.5,0.5c-0.8,0.2-1.7,0.4-2.8,0.5V28h3.2v0.6h-3.2v1.5h3.7C57.6,30.1,57.6,30.8,57.6,30.8z"/>
				<path class="st9" d="M60.3,26.2c-0.1,0.2-0.1,0.4-0.2,0.6c-0.2,0.8-0.4,2.4-0.4,3.4c0,0.4,0,0.8,0.1,1.2
					c0.2-0.4,0.4-0.9,0.5-1.3l0.4,0.3c-0.2,0.6-0.5,1.6-0.6,2c0,0.1,0,0.3,0,0.4v0.3h-0.6c-0.2-0.6-0.3-1.7-0.3-2.9
					c0-1.3,0.3-2.8,0.4-3.6c0-0.2,0.1-0.4,0.1-0.6L60.3,26.2z M62.3,30.6c-0.1,0.3-0.1,0.6-0.1,0.8c0,0.4,0.3,0.8,1.5,0.8
					c0.8,0,1.5-0.1,2.2-0.2v0.8c-0.5,0.1-1.3,0.2-2.2,0.2c-1.5,0-2.2-0.5-2.2-1.3c0-0.3,0.1-0.7,0.1-1.1H62.3z M62,26.9
					c1,0.2,2.8,0.1,3.7,0v0.7c-1,0.1-2.7,0.1-3.7,0L62,26.9z"/>
				<path class="st9" d="M71.7,26c0,1.6,0.2,5,3.7,7.1c-0.2,0.1-0.4,0.4-0.5,0.6c-2.2-1.3-3.2-3.3-3.6-5c-0.7,2.3-1.8,4-3.6,5
					c-0.1-0.1-0.4-0.4-0.6-0.5c2-1,3.1-2.8,3.6-5.4l0.4,0.1c0-0.5-0.1-0.9-0.1-1.2h-2.2V26H71.7z"/>
				<path class="st9" d="M84.2,32.3c-0.5,0.5-1,0.7-1.6,0.7s-1-0.4-1-1.1c0-1,0.3-2.5,0.3-3.3c0-0.5-0.3-0.7-0.7-0.7
					c-0.7,0-1.8,0.8-2.6,1.7c0,0.4,0,0.7,0,1c0,0.8,0,1.4,0,2.2c0,0.2,0,0.4,0,0.5h-0.8c0-0.1,0-0.4,0-0.5c0-0.9,0-1.3,0-2.3
					c0-0.1,0-0.2,0-0.3c-0.4,0.7-1,1.5-1.4,2.1L76,31.6c0.5-0.6,1.5-2,2-2.7c0-0.3,0-0.6,0.1-0.9c-0.4,0-1.2,0.2-1.7,0.2l-0.1-0.7
					c0.2,0,0.4,0,0.6,0c0.3,0,0.8-0.1,1.3-0.1c0-0.4,0-0.7,0-0.8c0-0.2,0-0.4,0-0.7h0.9c0,0.2-0.1,0.7-0.2,1.3l0,0l0.3,0.3
					c-0.1,0.2-0.3,0.4-0.4,0.6c0,0.2,0,0.3,0,0.5c0.7-0.6,1.8-1.5,2.7-1.5c0.8,0,1.3,0.5,1.3,1.2c0,0.9-0.3,2.4-0.3,3.3
					c0,0.3,0.1,0.5,0.5,0.5s0.9-0.3,1.3-0.7L84.2,32.3z"/>
				<path class="st9" d="M89.2,28.5c0,0.6,0,1.4,0.1,2.2c1.1,0.3,2.1,0.9,2.8,1.5l-0.4,0.7c-0.6-0.6-1.4-1.1-2.3-1.5
					c0,0.2,0,0.4,0,0.6c0,0.7-0.5,1.4-1.6,1.4c-1.2,0-2.1-0.4-2.1-1.4c0-0.8,0.7-1.5,2.2-1.5c0.3,0,0.5,0,0.8,0.1
					c0-0.7-0.1-1.5-0.1-2.1c0-0.5,0-1.3,0-1.6c0-0.3,0-0.7-0.1-0.9h0.9c0,0.2-0.1,0.6-0.1,0.9c0,0.2,0,0.6,0,0.9
					c0.7,0,1.8-0.1,2.6-0.2v0.7C91.1,28.3,89.9,28.4,89.2,28.5L89.2,28.5z M88.6,31.2c-0.3-0.1-0.6-0.1-0.9-0.1
					c-0.9,0-1.4,0.3-1.4,0.8c0,0.5,0.5,0.8,1.4,0.8c0.7,0,1-0.3,1-0.9C88.6,31.6,88.6,31.4,88.6,31.2z"/>
				<path class="st9" d="M97.4,28.7c-1,0-1.9,0.3-2.4,0.5c-0.3,0.1-0.5,0.2-0.7,0.3L94,28.6c0.2,0,0.5-0.1,0.8-0.1
					c0.6-0.1,1.6-0.4,2.7-0.4c1.3,0,2.2,0.7,2.2,2c0,1.9-1.7,3-4,3.4l-0.4-0.7c2.2-0.3,3.7-1.1,3.7-2.7
					C98.9,29.2,98.3,28.7,97.4,28.7z M99,26.4l-0.1,0.7c-1-0.1-2.8-0.2-3.8-0.4l0.1-0.7C96.2,26.2,98.1,26.4,99,26.4z"/>
			</g>
		</g>
	</g>
</g>
</svg>
