<?xml version="1.0" encoding="utf-8"?>
<!-- Generator: Adobe Illustrator 24.0.3, SVG Export Plug-In . SVG Version: 6.00 Build 0)  -->
<svg version="1.1" id="レイヤー_1" xmlns="http://www.w3.org/2000/svg" xmlns:xlink="http://www.w3.org/1999/xlink" x="0px"
	 y="0px" viewBox="0 0 52 41" style="enable-background:new 0 0 52 41;" xml:space="preserve">
<style type="text/css">
	.st0{fill:#FFFFFF;}
	.st1{fill:#ED2F78;}
	.st2{fill:#3FA5FF;}
	.st3{fill:#630000;}
	.st4{fill:#FFCE00;}
</style>
<rect x="43.9" y="12.9" class="st0" width="2.4" height="23"/>
<path class="st0" d="M9.5,6.5h33v29.4H28.1c-0.2,0-0.3,0.1-0.4,0.2l-1,0.8h-1.5l-1-0.8c-0.1-0.1-0.3-0.2-0.4-0.2H9.5V6.5z"/>
<rect x="5.7" y="12.9" class="st0" width="2.4" height="23"/>
<path class="st1" d="M39.9,0.7c-2.2,0-13.8,0-13.9,0c-0.1,0-11.7,0-13.9,0c-2.2,0-3.3,0.6-3.3,3.5c0,0.3,0,0.8,0,1.6h34.3
	c0-0.8,0-1.3,0-1.6C43.2,1.3,42.1,0.7,39.9,0.7z"/>
<path class="st2" d="M47.6,36.6C47.6,36.6,47.6,36.6,47.6,36.6v-25h-4.4c0-0.6,0-1.2,0-1.7h5.3c0.5,0,0.9,0.4,0.9,0.9v25.8
	c0,0,0,0,0,0.1H47.6z"/>
<path class="st2" d="M4.4,36.6C4.4,36.6,4.4,36.6,4.4,36.6v-25h4.4c0-0.6,0-1.2,0-1.7H3.6c-0.5,0-0.9,0.4-0.9,0.9v25.8
	c0,0,0,0,0,0.1H4.4z"/>
<path class="st2" d="M51.3,36.6h-8.1h-15l-1.1,1h-1h-1l-1.1-1H8.8H0.7c0,0-0.2,2.7,2.9,2.7c3,0,22.3,0,22.4,0c0.1,0,19.4,0,22.4,0
	C51.5,39.3,51.3,36.6,51.3,36.6z"/>
<path class="st3" d="M52,36.6c0-0.4-0.3-0.6-0.7-0.6h-0.7V10.8c0-1.2-1-2.1-2.1-2.1h-4.6V5.8V4.2c0-3.5-1.6-4.2-4-4.2H12.1
	c-2.4,0-4,0.7-4,4.2v1.6v2.9H3.6c-1.2,0-2.1,1-2.1,2.1v25.1H0.7c-0.4,0-0.7,0.3-0.7,0.6C0,36.6-0.1,38,0.9,39c0.6,0.7,1.5,1,2.7,1
	h44.9c1.2,0,2.1-0.3,2.7-1C52.1,38,52,36.6,52,36.6z M43.9,9.9h4.6c0.5,0,0.9,0.4,0.9,0.9v25.1h-1.7V11.6h-3.7V9.9z M46.3,12.9v23
	h-2.4v-23H46.3z M9.5,4.2c0-1.2,0.2-1.9,0.6-2.3c0.3-0.3,0.9-0.5,2-0.5h27.8c1.1,0,1.7,0.1,2,0.5c0.4,0.4,0.6,1.1,0.6,2.3v0.9h-33
	V4.2z M9.5,6.5h33v29.4H28.1c-0.2,0-0.3,0.1-0.4,0.2l-1,0.8h-1.5l-1-0.8c-0.1-0.1-0.3-0.2-0.4-0.2H9.5V6.5z M5.7,35.9v-23h2.4v23
	H5.7z M2.7,10.8c0-0.5,0.4-0.9,0.9-0.9h4.6v1.7H4.4v24.3H2.7V10.8z M50.1,38.1c-0.4,0.4-0.9,0.6-1.7,0.6H3.6c-0.7,0-1.3-0.2-1.7-0.6
	c-0.2-0.2-0.4-0.5-0.4-0.8h7.4h14.8l1,0.8c0.1,0.1,0.3,0.2,0.4,0.2h2c0,0,0.1,0,0.1,0c0.1,0,0.2-0.1,0.3-0.2l1-0.8h14.8h7.4
	C50.5,37.5,50.3,37.8,50.1,38.1z"/>
<path class="st4" d="M21.9,17.6L17,15.4v-1.5l4.8-2.3l0.7,1.5l-3.3,1.6l3.3,1.5L21.9,17.6z"/>
<path class="st4" d="M29.4,17.6l-0.7-1.5l3.3-1.6l-3.3-1.5l0.7-1.5l4.8,2.3v1.5L29.4,17.6z"/>
<path class="st4" d="M26.4,9.1l-3.3,10.1l1.5,0.5l3.3-10.1L26.4,9.1z"/>
<path class="st3" d="M15.6,25h-1.2c-0.4,0-0.8-0.4-0.8-0.8c0-0.4,0.4-0.8,0.8-0.8h1.2c0.4,0,0.8,0.4,0.8,0.8
	C16.4,24.6,16.1,25,15.6,25z"/>
<path class="st3" d="M17.5,32.3h-3.1c-0.4,0-0.8-0.4-0.8-0.8c0-0.5,0.4-0.8,0.8-0.8h3.1c0.4,0,0.8,0.4,0.8,0.8
	C18.4,32,18,32.3,17.5,32.3z"/>
<path class="st3" d="M37.6,32.3H21.1c-0.4,0-0.8-0.4-0.8-0.8c0-0.5,0.4-0.8,0.8-0.8h16.5c0.4,0,0.8,0.4,0.8,0.8
	C38.4,32,38,32.3,37.6,32.3z"/>
<path class="st3" d="M20,25h-1.2c-0.4,0-0.8-0.4-0.8-0.8c0-0.4,0.4-0.8,0.8-0.8H20c0.4,0,0.8,0.4,0.8,0.8C20.8,24.6,20.4,25,20,25z"
	/>
<path class="st3" d="M24.4,25h-1.2c-0.4,0-0.8-0.4-0.8-0.8c0-0.4,0.4-0.8,0.8-0.8h1.2c0.4,0,0.8,0.4,0.8,0.8
	C25.2,24.6,24.8,25,24.4,25z"/>
<path class="st3" d="M28.8,25h-1.2c-0.4,0-0.8-0.4-0.8-0.8c0-0.4,0.4-0.8,0.8-0.8h1.2c0.4,0,0.8,0.4,0.8,0.8
	C29.6,24.6,29.2,25,28.8,25z"/>
<path class="st3" d="M33.2,25H32c-0.4,0-0.8-0.4-0.8-0.8c0-0.4,0.4-0.8,0.8-0.8h1.2c0.4,0,0.8,0.4,0.8,0.8C34,24.6,33.6,25,33.2,25z
	"/>
<path class="st3" d="M37.6,25h-1.2c-0.4,0-0.8-0.4-0.8-0.8c0-0.4,0.4-0.8,0.8-0.8h1.2c0.4,0,0.8,0.4,0.8,0.8
	C38.4,24.6,38,25,37.6,25z"/>
<path class="st3" d="M37.6,28.7H14.4c-0.4,0-0.8-0.4-0.8-0.8c0-0.5,0.4-0.8,0.8-0.8h23.2c0.4,0,0.8,0.4,0.8,0.8
	C38.4,28.3,38,28.7,37.6,28.7z"/>
<path class="st0" d="M12.3,4c0.4,0,0.7-0.3,0.7-0.8s-0.3-0.8-0.7-0.8s-0.7,0.3-0.7,0.8S11.9,4,12.3,4z"/>
<path class="st0" d="M15,4c0.4,0,0.7-0.3,0.7-0.8S15.4,2.5,15,2.5s-0.7,0.3-0.7,0.8S14.6,4,15,4z"/>
<path class="st0" d="M17.7,4c0.4,0,0.7-0.3,0.7-0.8s-0.3-0.8-0.7-0.8c-0.4,0-0.7,0.3-0.7,0.8S17.3,4,17.7,4z"/>
</svg>
