<?xml version="1.0" encoding="utf-8"?>
<!-- Generator: Adobe Illustrator 24.1.3, SVG Export Plug-In . SVG Version: 6.00 Build 0)  -->
<svg version="1.1" id="レイヤー_1" xmlns="http://www.w3.org/2000/svg" xmlns:xlink="http://www.w3.org/1999/xlink" x="0px"
	 y="0px" viewBox="0 0 18.1 18.2" style="enable-background:new 0 0 18.1 18.2;" xml:space="preserve">
<style type="text/css">
	.st0{fill:#ED2F78;}
</style>
<path class="st0" d="M13.3,9.1l4.2-4.2c0.8-0.8,0.8-2,0-2.8l-1.4-1.4c-0.8-0.8-2-0.8-2.8,0L9.1,4.8L4.8,0.6C4-0.2,2.8-0.2,2,0.6
	L0.6,2c-0.8,0.8-0.8,2,0,2.8L4.8,9l-4.2,4.2c-0.8,0.8-0.8,2,0,2.8L2,17.6c0.8,0.8,2,0.8,2.8,0L9,13.4l4.2,4.2c0.8,0.8,2,0.8,2.8,0
	l1.4-1.4c0.8-0.8,0.8-2,0-2.8L13.3,9.1z"/>
</svg>
