<svg xmlns="http://www.w3.org/2000/svg" viewBox="0 0 62.75 55.68"><defs><style>.cls-1{fill:#fff;}.cls-2{fill:#ed2f78;}.cls-3{fill:#3eadff;}.cls-4{fill:#ffce00;}.cls-5{fill:#ffb000;}.cls-6{fill:#630000;}</style></defs><title>icon_graphic</title><g id="レイヤー_2" data-name="レイヤー 2"><g id="レイヤー_1-2" data-name="レイヤー 1"><path class="cls-1" d="M56.21,6.21A2.29,2.29,0,1,1,58.5,3.92,2.29,2.29,0,0,1,56.21,6.21Z"/><path class="cls-1" d="M6.54,6.21A2.29,2.29,0,1,1,8.82,3.92,2.3,2.3,0,0,1,6.54,6.21Z"/><rect class="cls-2" x="1.64" y="27.79" width="7.18" height="7.18"/><rect class="cls-2" x="27.79" y="1.64" width="7.18" height="7.18"/><rect class="cls-2" x="53.93" y="27.79" width="7.18" height="7.18"/><rect class="cls-3" x="22.85" y="47" width="17.05" height="7.2" rx="1.47"/><path class="cls-4" d="M28.35,31.94a3,3,0,0,1,2.1-2.88l.68-.21V14.3L19.6,34l.5.54c1.48,1.56,5,5.76,5.43,11l.08.89h5.77V35A3,3,0,0,1,28.35,31.94Z"/><path class="cls-5" d="M31.63,14.3V28.85l.67.21A3,3,0,0,1,31.38,35V46.35h5.76l.08-.89c.46-5.2,4-9.4,5.43-11l.5-.54Z"/><path class="cls-6" d="M61.44,26.15h-4C56.87,16.47,49.89,8.29,39.9,5.23H52.53a3.92,3.92,0,1,0,0-2.62H36.6V1.31A1.3,1.3,0,0,0,35.3,0H27.45a1.3,1.3,0,0,0-1.3,1.31v1.3H10.22a3.92,3.92,0,1,0,0,2.62H22.85c-10,3.06-17,11.24-17.56,20.92h-4A1.3,1.3,0,0,0,0,27.45V35.3a1.3,1.3,0,0,0,1.31,1.3H9.15a1.31,1.31,0,0,0,1.31-1.3V27.45a1.31,1.31,0,0,0-1.31-1.3H7.91c.64-9.29,8-17,18.24-19V9.15a1.31,1.31,0,0,0,1.3,1.31H35.3a1.31,1.31,0,0,0,1.3-1.31V7.1c10.22,2.05,17.6,9.76,18.24,19H53.6a1.31,1.31,0,0,0-1.31,1.3V35.3a1.31,1.31,0,0,0,1.31,1.3h7.84a1.3,1.3,0,0,0,1.31-1.3V27.45A1.31,1.31,0,0,0,61.44,26.15ZM56.21,2.61a1.31,1.31,0,1,1-1.3,1.31A1.31,1.31,0,0,1,56.21,2.61ZM6.54,5.23a1.31,1.31,0,1,1,1.3-1.31A1.31,1.31,0,0,1,6.54,5.23ZM7.84,34H2.61V28.76H7.84ZM34,7.84H28.76V2.61H34ZM60.14,34H54.91V28.76h5.23Z"/><path class="cls-6" d="M44.53,33.55,32.43,12.91v0l-.06-.09,0,0-.09-.11h0l-.09-.08,0,0-.1-.06,0,0-.14-.06h0l-.13-.05h0l-.11,0h-.37l-.11,0h0l-.13.05h0l-.14.06,0,0-.1.06,0,0-.09.08h0l-.09.11,0,0-.06.09v0L18.22,33.55a1.23,1.23,0,0,0,.23,1.53c.05.05,5,4.64,5.59,10.46a3,3,0,0,0-2.67,2.93v4.27a2.94,2.94,0,0,0,2.94,2.94H38.44a2.94,2.94,0,0,0,2.94-2.94V48.47a3,3,0,0,0-2.67-2.93c.63-5.82,5.54-10.41,5.59-10.46A1.23,1.23,0,0,0,44.53,33.55Zm-13.16-3a1.55,1.55,0,1,1-1.55,1.55A1.54,1.54,0,0,1,31.37,30.55Zm7.56,17.92v4.27a.49.49,0,0,1-.49.49H24.31a.49.49,0,0,1-.49-.49V48.47a.49.49,0,0,1,.49-.49H38.44A.49.49,0,0,1,38.93,48.47Zm-2.68-2.95H26.5C26,40,22.38,35.64,20.81,34l9.34-15.93V28.29a4,4,0,1,0,2.45,0V18.05L41.94,34C40.37,35.64,36.74,40,36.25,45.52Z"/></g></g></svg>