<svg width="43" height="40" viewBox="0 0 43 40" fill="none" xmlns="http://www.w3.org/2000/svg">
<path d="M12.2429 23.5414C18.5015 23.5414 23.5751 18.4678 23.5751 12.2092C23.5751 5.95056 18.5015 0.876953 12.2429 0.876953C5.98425 0.876953 0.910645 5.95056 0.910645 12.2092C0.910645 18.4678 5.98425 23.5414 12.2429 23.5414Z" fill="#FF55AA"/>
<path d="M12.2445 24.4182C5.49914 24.4182 0.0354004 18.9545 0.0354004 12.2091C0.0354004 5.46374 5.49914 0 12.2445 0C18.9899 0 24.4536 5.46374 24.4536 12.2091C24.3862 18.9545 18.9899 24.3508 12.2445 24.4182ZM12.2445 1.68634C6.44349 1.68634 1.72174 6.40809 1.72174 12.2091C1.72174 18.0101 6.44349 22.7319 12.2445 22.7319C18.0455 22.7319 22.7673 18.0101 22.7673 12.2091C22.6998 6.40809 18.0455 1.68634 12.2445 1.68634Z" fill="#630000"/>
<path d="M41.3827 11.5347H18.6509V34.2665H41.3827V11.5347Z" fill="#45DCFF"/>
<path d="M41.3152 35.0759H18.6508C18.1786 35.0759 17.8413 34.6711 17.8413 34.2664V11.5345C17.8413 11.0624 18.246 10.7251 18.6508 10.7251H41.3826C41.8548 10.7251 42.1921 11.1298 42.1921 11.5345V34.2664C42.1921 34.7386 41.7873 35.0759 41.3152 35.0759ZM19.4602 33.3895H40.5057V12.4114H19.4602V33.3895Z" fill="#630000"/>
<path d="M13.9965 39.1232H0.843018L7.45347 27.791L13.9965 16.4587L20.5395 27.791L27.0825 39.1232H13.9965Z" fill="#FFDC48"/>
<path d="M27.0826 39.9999H0.84317C0.573356 39.9999 0.236088 39.8649 0.10118 39.5951C-0.0337268 39.3253 -0.0337268 38.988 0.10118 38.7182L13.1872 15.9864C13.457 15.5816 13.9966 15.4467 14.4013 15.7165C14.4688 15.784 14.6037 15.8515 14.6712 15.9864L27.7572 38.7182C27.8921 38.988 27.8921 39.3253 27.7572 39.5951C27.6897 39.7975 27.4199 39.9999 27.0826 39.9999ZM2.32715 38.3135H25.5987L13.9966 18.1449L2.32715 38.3135Z" fill="#630000"/>
</svg>
