<?xml version="1.0" encoding="utf-8"?>
<!-- Generator: Adobe Illustrator 24.0.3, SVG Export Plug-In . SVG Version: 6.00 Build 0)  -->
<svg version="1.1" id="レイヤー_1" xmlns="http://www.w3.org/2000/svg" xmlns:xlink="http://www.w3.org/1999/xlink" x="0px"
	 y="0px" viewBox="0 0 24 19" style="enable-background:new 0 0 24 19;" xml:space="preserve">
<path d="M2,18.5h15c0.7,0,1.2-0.4,1.6-0.9L24,9.5l-5.4-8.1c-0.4-0.5-1-0.9-1.7-0.9L2,0.5c-1.1,0-2,0.9-2,2l0,14
	C0,17.6,0.9,18.5,2,18.5z M15,8c0.8,0,1.5,0.7,1.5,1.5S15.8,11,15,11s-1.5-0.7-1.5-1.5S14.2,8,15,8z M10,8c0.8,0,1.5,0.7,1.5,1.5
	S10.8,11,10,11s-1.5-0.7-1.5-1.5S9.2,8,10,8z M5,8c0.8,0,1.5,0.7,1.5,1.5S5.8,11,5,11s-1.5-0.7-1.5-1.5S4.2,8,5,8z"/>
</svg>
